<svg id="svg" version="1.1" width="400" height="381.9628647214854" viewBox="0 0 400 381.9628647214854" xmlns="http://www.w3.org/2000/svg" xmlns:xlink="http://www.w3.org/1999/xlink" ><g id="svgg"><path id="path0" d="M177.431 58.498 C 177.247 58.796,175.991 58.849,173.302 58.674 C 170.524 58.492,169.598 58.536,170.010 58.828 C 170.436 59.131,169.947 59.219,168.099 59.173 C 164.384 59.081,159.917 59.503,159.765 59.960 C 159.691 60.182,159.258 60.351,158.803 60.336 C 158.001 60.310,157.999 60.299,158.739 59.981 C 159.160 59.800,159.277 59.640,159.001 59.626 C 158.724 59.611,158.144 59.788,157.712 60.019 C 157.280 60.251,156.134 60.500,155.165 60.574 C 154.196 60.648,153.343 60.889,153.269 61.109 C 153.196 61.329,152.849 61.506,152.499 61.503 C 151.948 61.498,151.940 61.447,152.436 61.127 C 152.942 60.799,152.941 60.756,152.425 60.751 C 152.104 60.748,151.486 60.994,151.051 61.299 C 150.616 61.603,149.933 61.864,149.533 61.877 C 147.243 61.956,145.204 62.390,145.428 62.753 C 145.565 62.974,145.505 63.049,145.295 62.920 C 145.086 62.790,144.242 62.880,143.422 63.119 C 142.601 63.358,141.757 63.567,141.547 63.583 C 140.390 63.674,136.458 65.130,136.628 65.406 C 136.738 65.584,136.687 65.691,136.514 65.644 C 136.340 65.596,135.511 65.693,134.670 65.860 C 133.285 66.135,132.144 66.571,128.500 68.222 C 127.838 68.522,127.155 68.768,126.982 68.768 C 126.809 68.768,125.374 69.388,123.793 70.146 C 116.734 73.529,114.388 74.722,113.917 75.167 C 113.640 75.430,113.193 75.645,112.925 75.645 C 112.657 75.645,112.041 75.989,111.557 76.409 C 111.072 76.829,110.444 77.173,110.161 77.173 C 109.878 77.173,109.647 77.313,109.647 77.484 C 109.647 77.655,109.052 78.028,108.325 78.313 C 107.599 78.598,106.916 79.060,106.809 79.339 C 106.702 79.619,106.351 79.847,106.029 79.847 C 105.707 79.847,105.444 79.998,105.444 80.183 C 105.444 80.368,104.928 80.732,104.298 80.993 C 103.668 81.254,103.152 81.619,103.152 81.804 C 103.152 81.988,102.968 82.139,102.744 82.139 C 102.355 82.139,100.080 83.714,99.018 84.718 C 98.740 84.981,98.365 85.196,98.185 85.196 C 98.005 85.196,97.220 85.798,96.440 86.533 C 95.660 87.268,94.882 87.870,94.712 87.870 C 94.541 87.870,93.817 88.472,93.103 89.207 C 92.389 89.943,91.656 90.544,91.475 90.544 C 91.294 90.544,90.252 91.490,89.159 92.646 C 88.066 93.801,87.028 94.747,86.852 94.748 C 86.514 94.749,80.993 100.241,80.993 100.577 C 80.993 100.686,80.091 101.738,78.988 102.916 C 75.921 106.190,74.340 108.020,74.190 108.472 C 74.114 108.698,73.508 109.473,72.843 110.195 C 70.591 112.639,70.479 112.792,69.005 115.404 C 68.610 116.104,68.051 116.913,67.763 117.201 C 67.475 117.489,67.240 117.970,67.240 118.270 C 67.240 118.570,67.064 118.816,66.848 118.816 C 66.633 118.816,66.293 119.245,66.094 119.771 C 65.894 120.296,65.554 120.726,65.339 120.726 C 65.124 120.726,64.947 120.963,64.947 121.252 C 64.947 121.542,64.690 121.992,64.376 122.253 C 64.062 122.513,63.605 123.394,63.361 124.210 C 63.116 125.025,62.785 125.692,62.624 125.692 C 62.463 125.692,61.845 126.681,61.252 127.889 C 60.658 129.097,60.068 130.172,59.941 130.277 C 59.814 130.382,59.499 131.113,59.243 131.901 C 58.986 132.689,58.631 133.333,58.453 133.333 C 58.276 133.333,58.018 133.849,57.880 134.479 C 57.741 135.110,57.486 135.626,57.312 135.626 C 57.138 135.626,56.775 136.485,56.506 137.536 C 56.236 138.586,55.890 139.446,55.737 139.446 C 55.583 139.446,55.337 139.995,55.189 140.666 C 55.042 141.337,54.705 142.102,54.441 142.366 C 54.177 142.630,53.843 143.629,53.700 144.585 C 53.557 145.541,53.292 146.323,53.111 146.323 C 52.930 146.323,52.667 146.850,52.525 147.495 C 52.384 148.139,52.039 149.107,51.760 149.646 C 51.480 150.185,51.137 151.462,50.996 152.485 C 50.855 153.509,50.596 154.346,50.419 154.346 C 50.242 154.346,49.881 155.635,49.616 157.211 C 49.351 158.787,49.014 160.076,48.866 160.076 C 48.718 160.076,48.476 161.280,48.329 162.751 C 48.181 164.222,47.933 165.425,47.778 165.425 C 47.476 165.425,46.609 171.760,46.609 173.967 C 46.609 174.697,46.394 175.366,46.132 175.454 C 45.477 175.672,45.437 204.586,46.090 205.959 C 46.330 206.464,46.733 208.940,46.986 211.461 C 47.238 213.982,47.583 216.131,47.752 216.237 C 47.920 216.342,48.182 217.588,48.333 219.007 C 48.485 220.425,48.737 221.585,48.894 221.585 C 49.051 221.585,49.387 222.875,49.641 224.451 C 49.895 226.027,50.244 227.316,50.417 227.316 C 50.589 227.316,50.915 228.367,51.141 229.651 C 51.368 230.935,51.710 232.181,51.902 232.421 C 52.094 232.660,52.371 233.415,52.517 234.097 C 52.663 234.780,52.914 235.339,53.074 235.339 C 53.234 235.339,53.576 236.285,53.835 237.440 C 54.093 238.596,54.445 239.542,54.617 239.542 C 54.789 239.542,55.042 240.143,55.180 240.879 C 55.318 241.614,55.581 242.216,55.765 242.216 C 55.949 242.216,56.221 242.768,56.369 243.442 C 56.639 244.673,58.001 247.589,58.472 247.947 C 58.611 248.052,58.946 248.825,59.217 249.666 C 59.488 250.506,59.837 251.280,59.993 251.385 C 60.149 251.490,60.551 252.178,60.885 252.913 C 61.508 254.282,62.298 255.629,62.677 255.969 C 62.794 256.074,63.116 256.719,63.392 257.402 C 63.668 258.085,64.007 258.644,64.146 258.644 C 64.285 258.644,64.611 259.117,64.871 259.694 C 65.750 261.645,66.515 262.846,66.879 262.846 C 67.077 262.846,67.240 263.096,67.240 263.400 C 67.240 263.705,67.458 264.092,67.725 264.260 C 67.992 264.428,68.419 265.038,68.672 265.616 C 68.926 266.194,69.309 266.667,69.524 266.667 C 69.738 266.667,69.914 266.850,69.914 267.074 C 69.914 267.423,71.060 269.126,72.397 270.764 C 72.607 271.021,73.123 271.680,73.543 272.227 C 73.964 272.775,74.481 273.424,74.694 273.670 C 74.906 273.915,75.938 275.143,76.986 276.397 C 79.224 279.074,90.145 289.971,90.590 289.971 C 90.758 289.971,91.532 290.659,92.310 291.500 C 93.087 292.340,93.876 293.028,94.062 293.028 C 94.249 293.028,94.800 293.457,95.287 293.983 C 95.773 294.508,96.357 294.938,96.584 294.938 C 96.810 294.938,97.220 295.254,97.495 295.641 C 97.770 296.028,98.413 296.567,98.925 296.839 C 99.437 297.111,100.039 297.485,100.262 297.671 C 102.124 299.218,102.542 299.522,102.801 299.522 C 102.964 299.522,103.324 299.738,103.602 300.001 C 104.392 300.749,107.298 302.579,107.696 302.579 C 107.893 302.579,108.112 302.724,108.182 302.902 C 108.459 303.605,121.021 310.291,126.266 312.527 C 126.686 312.706,127.868 313.220,128.894 313.669 C 129.919 314.119,131.337 314.580,132.046 314.695 C 132.754 314.810,133.333 315.034,133.333 315.194 C 133.333 315.446,135.836 316.099,136.100 315.915 C 136.154 315.877,136.884 316.214,137.721 316.662 C 138.559 317.111,139.599 317.479,140.033 317.479 C 140.466 317.479,140.986 317.643,141.187 317.844 C 141.389 318.046,142.296 318.304,143.204 318.418 C 144.112 318.532,145.314 318.746,145.875 318.893 C 146.437 319.041,147.240 319.119,147.660 319.067 C 148.292 318.989,148.325 319.041,147.851 319.366 C 147.385 319.686,147.456 319.769,148.233 319.814 C 148.758 319.844,149.618 319.934,150.143 320.015 C 150.669 320.095,151.574 320.170,152.156 320.182 C 152.737 320.194,153.114 320.364,152.993 320.560 C 152.872 320.756,153.169 320.939,153.655 320.966 C 154.140 320.993,154.967 321.066,155.492 321.129 C 156.017 321.191,157.455 321.325,158.686 321.427 C 159.918 321.529,161.113 321.800,161.341 322.029 C 161.570 322.258,162.024 322.433,162.350 322.418 C 162.769 322.399,162.719 322.296,162.178 322.063 C 161.532 321.786,161.601 321.731,162.623 321.708 C 163.289 321.693,163.891 321.856,163.963 322.069 C 164.318 323.136,193.276 323.131,193.632 322.065 C 193.702 321.854,194.304 321.693,194.970 321.708 C 195.992 321.731,196.061 321.786,195.415 322.063 C 194.874 322.296,194.824 322.399,195.244 322.418 C 195.569 322.433,196.023 322.258,196.252 322.029 C 196.481 321.800,197.675 321.529,198.907 321.427 C 200.139 321.325,201.576 321.191,202.101 321.129 C 202.627 321.066,203.453 320.993,203.938 320.966 C 204.424 320.939,204.721 320.756,204.600 320.560 C 204.479 320.364,204.856 320.194,205.437 320.182 C 206.019 320.170,206.925 320.095,207.450 320.015 C 207.975 319.934,208.835 319.844,209.360 319.814 C 210.137 319.769,210.209 319.686,209.742 319.366 C 209.268 319.041,209.301 318.989,209.933 319.067 C 210.353 319.119,211.156 319.041,211.718 318.893 C 212.279 318.746,213.481 318.532,214.389 318.418 C 215.297 318.304,216.205 318.046,216.406 317.844 C 216.607 317.643,217.127 317.479,217.561 317.479 C 217.994 317.479,218.991 317.134,219.776 316.714 C 220.561 316.293,221.290 315.957,221.397 315.966 C 222.065 316.026,224.260 315.433,224.260 315.194 C 224.260 315.034,224.839 314.810,225.548 314.695 C 226.256 314.580,227.588 314.151,228.508 313.742 C 229.429 313.333,230.941 312.674,231.870 312.277 C 235.419 310.763,241.217 307.717,241.350 307.297 C 241.728 306.109,237.679 306.563,234.474 308.067 C 198.376 325.011,155.485 324.658,120.726 307.130 C 111.413 302.434,101.337 295.884,95.031 290.427 C 77.108 274.918,64.754 257.617,56.920 237.058 C 56.439 235.798,55.832 234.250,55.571 233.620 C 55.309 232.989,54.971 231.872,54.819 231.137 C 54.668 230.401,54.412 229.628,54.250 229.417 C 54.089 229.207,53.774 228.262,53.550 227.316 C 53.023 225.084,52.370 222.587,51.751 220.439 C 51.479 219.494,51.134 217.861,50.986 216.810 C 50.837 215.759,50.588 214.728,50.432 214.518 C 50.276 214.308,49.931 213.190,49.666 212.034 C 49.401 210.879,49.059 209.761,48.907 209.551 C 46.150 205.739,46.146 175.639,48.903 173.448 C 49.139 173.260,50.034 169.554,51.025 164.661 C 51.876 160.462,52.714 156.875,53.078 155.874 C 53.270 155.349,53.888 153.372,54.452 151.480 C 55.016 149.589,55.717 147.500,56.010 146.838 C 56.303 146.176,56.543 145.370,56.543 145.046 C 56.543 144.722,56.691 144.366,56.872 144.254 C 57.053 144.142,57.420 143.272,57.686 142.321 C 57.952 141.370,58.320 140.592,58.502 140.592 C 58.685 140.592,58.835 140.281,58.835 139.900 C 58.835 138.325,66.623 123.814,70.253 118.625 C 70.988 117.574,72.087 115.981,72.694 115.084 C 80.176 104.035,94.836 89.944,107.152 81.962 C 112.462 78.521,123.175 72.758,128.176 70.652 C 137.057 66.912,143.751 64.815,153.200 62.814 C 157.311 61.942,159.403 61.620,166.571 60.751 C 170.220 60.309,186.868 60.299,190.640 60.737 C 198.845 61.688,202.431 62.321,210.124 64.173 C 213.983 65.102,219.240 66.799,224.882 68.937 C 227.344 69.869,227.766 69.925,229.276 69.518 L 230.946 69.067 229.417 68.373 C 225.468 66.577,224.343 66.141,222.923 65.860 C 222.082 65.693,221.253 65.596,221.080 65.644 C 220.906 65.691,220.855 65.584,220.965 65.406 C 221.076 65.227,220.100 64.753,218.797 64.352 C 216.465 63.635,216.044 63.532,214.511 63.306 C 214.087 63.243,213.528 63.061,213.269 62.901 C 213.010 62.741,212.600 62.733,212.357 62.883 C 212.099 63.042,212.019 62.988,212.165 62.753 C 212.386 62.395,210.448 61.974,208.117 61.873 C 207.748 61.857,206.974 61.598,206.397 61.297 C 205.222 60.684,204.270 60.553,205.158 61.127 C 205.653 61.447,205.645 61.498,205.094 61.503 C 204.744 61.506,204.397 61.329,204.324 61.109 C 204.250 60.889,203.397 60.648,202.428 60.574 C 201.459 60.500,200.313 60.251,199.881 60.019 C 199.449 59.788,198.869 59.611,198.592 59.626 C 198.316 59.640,198.434 59.800,198.854 59.981 C 199.594 60.299,199.592 60.310,198.790 60.336 C 198.335 60.351,197.902 60.182,197.828 59.960 C 197.676 59.503,193.209 59.081,189.494 59.173 C 187.646 59.219,187.157 59.131,187.584 58.828 C 187.995 58.536,187.069 58.492,184.291 58.674 C 181.602 58.849,180.346 58.796,180.162 58.498 C 180.017 58.263,179.402 58.071,178.797 58.071 C 178.191 58.071,177.577 58.263,177.431 58.498 M279.561 106.864 C 278.366 107.045,278.238 107.417,279.121 108.150 C 279.755 108.676,282.597 112.277,284.218 114.609 C 294.371 129.215,299.787 140.547,304.304 156.638 C 309.289 174.396,310.065 199.431,306.170 216.810 C 301.873 235.979,292.386 257.272,283.596 267.480 C 283.114 268.040,283.235 268.129,284.796 268.363 C 285.751 268.507,286.537 268.828,286.542 269.078 C 286.546 269.328,286.846 268.932,287.207 268.198 C 287.569 267.464,288.166 266.561,288.536 266.192 C 288.905 265.823,289.207 265.281,289.207 264.988 C 289.207 264.696,289.465 264.357,289.780 264.236 C 290.096 264.115,290.353 263.753,290.353 263.431 C 290.353 263.110,290.516 262.846,290.715 262.846 C 291.051 262.846,291.512 262.143,292.714 259.790 C 292.983 259.265,293.402 258.708,293.646 258.553 C 293.889 258.398,294.207 257.798,294.353 257.220 C 294.498 256.641,294.732 256.080,294.873 255.973 C 295.266 255.674,296.035 254.392,296.708 252.913 C 297.042 252.178,297.444 251.490,297.600 251.385 C 297.756 251.280,298.106 250.511,298.379 249.676 C 298.651 248.842,299.106 247.927,299.389 247.643 C 299.673 247.360,299.904 246.882,299.904 246.582 C 299.904 246.282,300.059 246.036,300.248 246.036 C 300.438 246.036,300.799 245.177,301.051 244.126 C 301.303 243.075,301.656 242.216,301.836 242.216 C 302.015 242.216,302.275 241.614,302.413 240.879 C 302.551 240.143,302.804 239.542,302.976 239.542 C 303.148 239.542,303.500 238.596,303.758 237.440 C 304.017 236.285,304.359 235.339,304.519 235.339 C 304.679 235.339,304.930 234.780,305.076 234.097 C 305.222 233.415,305.499 232.660,305.691 232.421 C 305.883 232.181,306.226 230.935,306.452 229.651 C 306.678 228.367,307.004 227.316,307.176 227.316 C 307.349 227.316,307.698 226.027,307.952 224.451 C 308.206 222.875,308.545 221.585,308.705 221.585 C 308.865 221.585,309.117 220.382,309.265 218.911 C 309.412 217.440,309.660 216.237,309.815 216.237 C 310.117 216.237,310.984 209.902,310.984 207.695 C 310.984 206.965,311.199 206.296,311.461 206.208 C 311.833 206.084,311.939 202.666,311.939 190.831 C 311.939 178.996,311.833 175.578,311.461 175.454 C 311.199 175.366,310.984 174.697,310.984 173.967 C 310.984 171.760,310.117 165.425,309.815 165.425 C 309.660 165.425,309.412 164.222,309.265 162.751 C 309.117 161.280,308.875 160.076,308.727 160.076 C 308.579 160.076,308.242 158.787,307.977 157.211 C 307.712 155.635,307.351 154.346,307.174 154.346 C 306.998 154.346,306.738 153.509,306.597 152.485 C 306.456 151.462,306.113 150.185,305.833 149.646 C 305.554 149.107,305.209 148.139,305.068 147.495 C 304.926 146.850,304.663 146.323,304.482 146.323 C 304.302 146.323,304.036 145.541,303.893 144.585 C 303.750 143.629,303.395 142.609,303.106 142.320 C 302.816 142.030,302.579 141.449,302.579 141.029 C 302.579 140.609,302.328 140.014,302.022 139.708 C 301.716 139.402,301.266 138.358,301.022 137.389 C 300.778 136.419,300.440 135.626,300.272 135.626 C 300.103 135.626,299.852 135.110,299.713 134.479 C 299.575 133.849,299.317 133.333,299.140 133.333 C 298.963 133.333,298.607 132.689,298.351 131.901 C 298.094 131.113,297.780 130.382,297.652 130.277 C 297.525 130.172,296.911 129.097,296.288 127.889 C 295.665 126.681,295.034 125.692,294.886 125.692 C 294.738 125.692,294.501 125.165,294.359 124.521 C 294.218 123.876,293.871 123.260,293.588 123.151 C 293.306 123.043,292.964 122.453,292.830 121.840 C 292.695 121.227,292.422 120.726,292.224 120.726 C 292.025 120.726,291.699 120.296,291.500 119.771 C 291.300 119.245,290.960 118.816,290.745 118.816 C 290.530 118.816,290.353 118.593,290.353 118.320 C 290.353 117.839,289.610 116.708,288.443 115.416 C 288.128 115.067,287.618 114.299,287.310 113.709 C 287.003 113.120,286.358 112.213,285.878 111.695 C 285.398 111.177,285.005 110.621,285.005 110.460 C 285.005 110.299,284.618 109.807,284.145 109.368 C 283.672 108.929,282.977 108.125,282.599 107.580 C 281.924 106.607,281.663 106.545,279.561 106.864 M263.280 199.713 L 263.228 203.629 265.461 203.629 C 268.032 203.629,269.913 202.443,268.117 201.954 C 266.885 201.618,265.365 200.175,264.728 198.737 C 264.431 198.066,264.070 197.517,263.926 197.517 C 263.781 197.517,263.589 197.130,263.498 196.657 C 263.407 196.184,263.309 197.560,263.280 199.713 M212.989 218.523 C 196.198 218.711,193.778 218.972,203.820 219.509 C 206.342 219.644,208.577 219.881,208.787 220.037 C 209.516 220.575,217.643 221.282,218.395 220.873 C 218.784 220.661,220.898 220.301,223.092 220.074 C 225.287 219.847,227.694 219.499,228.441 219.301 C 229.188 219.103,230.487 218.780,231.328 218.584 C 232.560 218.295,232.634 218.236,231.710 218.276 C 231.079 218.304,222.655 218.415,212.989 218.523 M190.028 308.285 C 189.910 308.404,186.037 308.590,181.420 308.700 C 175.764 308.835,172.940 309.042,172.759 309.334 C 172.611 309.573,171.975 309.857,171.345 309.966 C 170.716 310.074,175.229 310.111,181.374 310.048 C 188.882 309.971,192.716 309.794,193.061 309.507 C 193.344 309.272,193.675 309.180,193.797 309.301 C 194.130 309.634,198.281 308.691,198.281 308.282 C 198.281 308.087,198.023 307.927,197.708 307.927 C 197.393 307.927,197.135 308.099,197.135 308.309 C 197.135 308.520,196.619 308.691,195.989 308.691 C 195.358 308.691,194.841 308.563,194.840 308.405 C 194.838 308.074,190.350 307.962,190.028 308.285 " stroke="none" fill="#000000" fill-rule="evenodd"></path><path id="path1" d="M230.935 69.385 C 230.711 69.739,229.492 70.212,228.071 70.496 C 226.710 70.768,224.050 71.362,222.159 71.815 C 220.267 72.268,217.689 72.877,216.428 73.169 C 213.997 73.732,210.806 74.555,204.585 76.224 C 202.483 76.788,200.248 77.382,199.618 77.544 C 122.032 97.548,64.797 132.574,51.333 168.290 C 35.252 210.948,63.085 250.291,127.603 276.097 C 129.389 276.812,131.392 277.647,132.054 277.953 C 132.716 278.259,133.378 278.510,133.524 278.510 C 133.671 278.510,134.333 278.742,134.995 279.026 C 137.265 279.999,140.416 281.184,140.733 281.184 C 140.907 281.184,141.591 281.426,142.254 281.721 C 144.836 282.873,166.059 289.710,170.583 290.846 C 171.003 290.952,172.980 291.496,174.976 292.055 C 179.765 293.395,194.373 297.113,197.517 297.791 C 198.883 298.086,201.633 298.697,203.629 299.149 C 205.626 299.601,208.376 300.197,209.742 300.474 C 211.108 300.750,214.031 301.352,216.237 301.810 C 220.049 302.603,225.193 303.565,231.519 304.669 C 233.095 304.944,235.330 305.347,236.485 305.565 C 237.641 305.783,239.403 306.070,240.401 306.203 C 241.613 306.365,242.216 306.629,242.216 306.996 C 242.216 307.298,242.560 307.545,242.980 307.545 C 243.400 307.545,243.744 307.390,243.744 307.201 C 243.744 307.011,244.250 306.680,244.868 306.464 C 245.868 306.116,248.262 304.668,253.104 301.483 C 253.945 300.930,254.804 300.343,255.014 300.180 C 255.224 300.016,256.342 299.193,257.498 298.351 C 267.399 291.139,275.784 283.073,283.954 272.901 C 285.372 271.136,286.528 269.569,286.521 269.420 C 286.514 269.272,286.091 269.666,285.581 270.296 C 285.071 270.926,284.303 271.804,283.874 272.247 C 283.445 272.689,283.095 273.159,283.095 273.291 C 283.095 274.291,266.667 290.437,264.423 291.643 C 264.081 291.826,263.629 292.173,263.419 292.413 C 262.952 292.946,260.215 295.094,258.321 296.415 C 254.050 299.393,249.711 302.197,249.374 302.197 C 249.161 302.197,250.252 301.339,251.799 300.291 C 264.985 291.352,286.834 269.847,283.177 269.407 C 282.606 269.338,281.976 269.123,281.777 268.930 C 281.577 268.736,279.170 268.562,276.428 268.544 C 273.686 268.526,269.293 268.367,266.667 268.192 C 264.040 268.016,257.937 267.609,253.104 267.286 C 248.271 266.963,242.426 266.525,240.115 266.312 C 237.803 266.099,233.763 265.745,231.137 265.525 C 225.184 265.027,216.050 264.141,211.270 263.596 C 201.229 262.453,181.684 259.891,180.691 259.587 C 180.367 259.488,178.906 259.248,177.443 259.054 C 174.961 258.725,172.421 258.290,161.796 256.376 C 157.149 255.539,147.783 253.603,144.222 252.742 C 142.961 252.438,140.382 251.822,138.491 251.373 C 74.915 236.298,44.961 209.253,55.974 176.874 C 65.425 149.085,109.414 127.580,179.370 116.546 C 182.101 116.116,185.282 115.591,186.437 115.381 C 191.547 114.450,212.509 111.760,222.159 110.796 C 224.260 110.586,227.612 110.235,229.608 110.015 C 234.774 109.447,247.187 108.438,267.049 106.972 C 269.465 106.794,273.369 106.635,275.724 106.619 L 280.005 106.590 278.228 104.585 C 272.220 97.802,259.714 86.437,254.934 83.413 C 253.066 82.232,250.499 80.229,250.852 80.230 C 251.040 80.230,252.184 80.918,253.395 81.758 C 254.605 82.598,255.678 83.286,255.778 83.286 C 255.879 83.286,256.264 83.537,256.634 83.845 C 257.595 84.645,260.557 86.846,261.280 87.297 C 261.931 87.704,264.515 89.855,266.583 91.711 C 267.273 92.330,267.927 92.837,268.038 92.837 C 268.464 92.837,276.975 101.198,280.570 105.148 C 281.388 106.046,281.990 106.579,281.907 106.332 C 281.465 105.005,271.198 94.318,266.413 90.204 C 262.881 87.167,255.929 81.790,254.668 81.120 C 254.058 80.795,253.370 80.368,253.140 80.171 C 250.907 78.251,238.175 71.060,237.009 71.060 C 236.721 71.060,236.485 70.888,236.485 70.678 C 236.485 70.468,236.268 70.296,236.002 70.296 C 235.736 70.296,234.877 69.952,234.093 69.532 C 232.367 68.607,231.452 68.564,230.935 69.385 M249.465 79.083 C 249.636 79.083,249.874 79.342,249.995 79.657 C 250.179 80.135,250.040 80.122,249.177 79.582 C 247.795 78.718,247.612 78.528,248.455 78.831 C 248.840 78.970,249.295 79.083,249.465 79.083 M92.988 146.666 C 91.078 147.538,90.938 147.981,90.932 153.210 C 90.923 160.043,90.987 160.076,104.301 160.076 L 114.275 160.076 114.158 158.453 L 114.040 156.829 104.839 156.945 C 93.994 157.082,94.665 157.362,94.826 152.759 L 94.938 149.570 104.489 149.379 L 114.040 149.188 114.040 147.660 L 114.040 146.132 104.298 146.041 C 95.473 145.959,94.408 146.018,92.988 146.666 M118.220 146.359 C 118.078 146.589,118.086 149.770,118.239 153.427 L 118.516 160.076 120.177 160.076 L 121.839 160.076 121.951 157.307 L 122.063 154.537 129.974 154.434 L 137.884 154.330 137.996 157.108 L 138.109 159.885 139.828 159.885 L 141.547 159.885 141.547 153.009 L 141.547 146.132 139.828 146.132 L 138.109 146.132 137.918 148.615 L 137.727 151.098 130.659 151.207 C 121.416 151.349,121.872 151.494,121.872 148.417 L 121.872 145.941 120.175 145.941 C 119.242 145.941,118.362 146.129,118.220 146.359 M154.063 146.424 C 153.593 146.684,151.556 149.475,149.537 152.627 C 147.518 155.778,145.625 158.629,145.330 158.961 C 144.582 159.803,145.016 160.076,147.100 160.076 C 148.772 160.076,148.965 159.971,149.907 158.548 L 150.918 157.020 157.375 157.020 L 163.833 157.020 165.043 158.548 C 166.161 159.960,166.397 160.076,168.131 160.076 C 170.467 160.076,170.720 160.828,165.854 153.313 C 161.257 146.213,160.957 145.952,157.402 145.952 C 156.036 145.952,154.534 146.164,154.063 146.424 M173.254 146.383 C 173.140 146.680,173.094 149.840,173.152 153.405 L 173.257 159.885 174.976 159.885 L 176.695 159.885 176.802 154.632 C 176.940 147.809,176.915 147.810,183.379 154.152 C 188.761 159.434,189.857 160.076,193.476 160.076 L 195.954 160.076 196.067 153.371 C 196.190 146.043,196.162 145.941,194.002 145.941 L 192.550 145.941 192.550 151.289 L 192.550 156.638 191.559 156.638 C 190.805 156.638,189.425 155.516,185.801 151.958 C 183.179 149.384,180.574 147.035,180.011 146.737 C 178.510 145.944,173.523 145.683,173.254 146.383 M200.191 153.009 L 200.191 160.076 201.910 160.076 L 203.629 160.076 203.629 154.728 C 203.629 147.780,203.698 147.769,209.742 153.703 C 215.712 159.565,216.068 159.789,219.715 160.000 L 222.697 160.173 222.810 153.401 C 222.938 145.700,222.974 145.846,220.974 146.010 L 219.484 146.132 219.293 151.480 C 219.188 154.422,218.973 156.786,218.816 156.734 C 218.658 156.681,218.293 156.638,218.005 156.638 C 217.717 156.638,215.265 154.434,212.558 151.740 C 207.196 146.406,206.359 145.941,202.123 145.941 L 200.191 145.941 200.191 153.009 M229.688 146.295 C 227.128 146.947,226.934 147.411,226.934 152.895 C 226.934 160.310,226.662 160.166,240.306 159.997 L 249.284 159.885 249.284 158.548 L 249.284 157.211 240.251 157.109 C 230.624 157.000,230.004 156.873,230.558 155.128 C 230.799 154.368,231.070 154.346,239.949 154.346 L 249.093 154.346 249.093 153.016 L 249.093 151.685 240.060 151.583 C 231.822 151.489,230.991 151.420,230.605 150.789 C 229.682 149.284,230.964 149.050,240.248 149.029 C 245.008 149.018,249.031 149.007,249.188 149.003 C 249.608 148.994,249.538 146.789,249.110 146.524 C 248.511 146.154,231.051 145.948,229.688 146.295 M253.481 146.265 C 253.379 146.367,253.295 149.009,253.295 152.135 C 253.295 160.276,252.992 160.076,265.330 160.076 C 275.013 160.076,275.533 159.990,275.379 158.401 L 275.263 157.211 266.506 157.108 C 255.842 156.983,256.679 157.480,256.760 151.323 L 256.823 146.514 255.244 146.296 C 254.376 146.177,253.583 146.163,253.481 146.265 M160.510 151.671 C 162.454 154.474,162.603 154.346,157.402 154.346 C 154.881 154.346,152.818 154.250,152.818 154.134 C 152.818 154.017,153.518 152.890,154.374 151.630 C 156.548 148.429,158.268 148.441,160.510 151.671 M93.770 168.590 C 93.667 168.860,93.629 172.084,93.687 175.754 L 93.792 182.426 128.493 182.617 C 168.513 182.837,164.279 182.306,164.279 187.109 C 164.279 192.532,166.605 192.163,132.323 192.166 C 98.926 192.168,98.966 192.163,94.288 197.008 C 91.182 200.224,91.133 200.513,90.997 216.332 L 90.876 230.372 134.263 230.372 L 177.650 230.372 177.650 223.114 L 177.650 215.855 142.120 215.855 L 106.590 215.855 106.590 211.712 C 106.590 205.698,102.853 206.368,137.353 206.203 C 169.528 206.050,169.046 206.083,173.682 203.708 C 178.461 201.260,179.520 198.408,179.596 187.775 C 179.692 174.369,177.059 170.479,166.666 168.666 C 162.160 167.881,94.070 167.809,93.770 168.590 M210.963 168.683 C 206.320 169.691,203.913 171.925,200.480 178.415 C 196.766 185.435,190.974 196.475,187.954 202.292 C 186.209 205.654,184.553 208.835,184.274 209.360 C 183.953 209.967,183.767 211.697,183.765 214.103 L 183.763 217.890 206.399 217.638 C 218.849 217.499,233.290 217.498,238.491 217.636 L 247.947 217.887 247.947 224.130 L 247.947 230.372 250.561 230.372 C 251.999 230.372,255.265 230.260,257.820 230.123 L 262.464 229.873 262.464 223.860 C 262.464 216.688,261.662 217.383,269.945 217.383 L 276.218 217.383 276.218 210.897 L 276.218 204.411 269.436 204.307 L 262.655 204.202 262.556 186.151 L 262.457 168.099 237.914 168.130 C 218.664 168.154,212.852 168.273,210.963 168.683 M247.857 193.410 L 247.755 204.202 226.383 204.301 C 214.629 204.356,204.869 204.258,204.696 204.085 C 204.393 203.782,204.802 202.920,209.083 194.842 C 210.141 192.846,211.822 189.666,212.819 187.775 C 215.739 182.235,214.280 182.617,232.536 182.617 L 247.958 182.617 247.857 193.410 " stroke="none" fill="#fdfdfd" fill-rule="evenodd"></path><path id="path2" d="M168.004 59.104 C 168.477 59.195,169.250 59.195,169.723 59.104 C 170.196 59.013,169.809 58.939,168.863 58.939 C 167.918 58.939,167.531 59.013,168.004 59.104 M187.870 59.104 C 188.343 59.195,189.117 59.195,189.589 59.104 C 190.062 59.013,189.675 58.939,188.730 58.939 C 187.784 58.939,187.397 59.013,187.870 59.104 M166.380 60.755 C 151.387 62.555,141.036 65.236,128.176 70.652 C 123.809 72.491,115.396 76.943,108.967 80.816 C 96.710 88.201,80.577 103.442,72.694 115.084 C 72.087 115.981,70.988 117.574,70.253 118.625 C 66.623 123.814,58.835 138.325,58.835 139.900 C 58.835 140.281,58.685 140.592,58.502 140.592 C 58.320 140.592,57.952 141.370,57.686 142.321 C 57.420 143.272,57.053 144.142,56.872 144.254 C 56.691 144.366,56.543 144.722,56.543 145.046 C 56.543 145.370,56.303 146.176,56.010 146.838 C 55.717 147.500,55.016 149.589,54.452 151.480 C 53.888 153.372,53.270 155.349,53.078 155.874 C 52.705 156.898,51.862 160.528,50.992 164.852 C 50.696 166.323,50.204 168.556,49.898 169.815 C 49.109 173.060,49.461 172.909,50.463 169.572 C 51.199 167.119,52.645 164.068,56.229 157.402 C 56.737 156.457,57.467 154.565,57.850 153.200 C 66.650 121.836,85.956 95.347,110.922 80.382 C 111.939 79.773,113.228 78.986,113.787 78.633 C 116.345 77.021,125.276 72.499,128.367 71.251 C 129.733 70.700,131.392 70.001,132.054 69.699 C 132.716 69.397,133.378 69.150,133.524 69.150 C 133.671 69.150,134.333 68.911,134.995 68.618 C 136.572 67.921,139.632 66.907,141.547 66.447 C 142.388 66.245,143.419 65.920,143.840 65.725 C 144.723 65.315,150.380 63.947,152.627 63.600 C 153.467 63.470,154.499 63.215,154.919 63.033 C 155.911 62.603,164.308 61.539,170.392 61.072 C 175.834 60.655,191.410 60.985,191.958 61.530 C 192.158 61.729,193.103 61.900,194.059 61.912 C 195.015 61.923,197.173 62.171,198.854 62.463 C 200.535 62.754,203.028 63.182,204.394 63.414 C 205.759 63.645,207.221 64.000,207.641 64.203 C 208.061 64.405,209.179 64.734,210.124 64.935 C 212.848 65.512,216.792 66.643,217.001 66.907 C 217.106 67.039,218.181 67.368,219.389 67.637 C 220.597 67.905,221.585 68.270,221.585 68.447 C 221.585 68.623,221.921 68.768,222.331 68.768 C 222.740 68.768,223.230 69.044,223.419 69.381 C 223.632 69.762,224.473 70.070,225.635 70.192 C 228.108 70.452,227.537 69.956,223.687 68.499 C 212.709 64.343,203.909 62.276,190.640 60.737 C 187.262 60.345,169.686 60.358,166.380 60.755 M278.001 106.845 C 277.861 106.984,273.491 107.330,268.291 107.613 C 263.090 107.896,256.772 108.282,254.250 108.471 C 251.729 108.660,249.205 108.830,248.641 108.848 C 247.560 108.884,246.884 110.001,247.420 110.868 C 247.577 111.123,247.763 111.846,247.832 112.475 C 247.900 113.104,248.133 113.728,248.348 113.861 C 248.563 113.994,248.781 115.034,248.832 116.173 C 248.883 117.311,249.070 118.477,249.249 118.763 C 249.439 119.068,249.409 119.384,249.176 119.528 C 248.642 119.858,249.062 121.884,249.716 122.135 C 250.421 122.406,250.381 123.018,249.658 123.018 C 248.994 123.018,249.274 124.906,250.011 125.400 C 250.250 125.560,250.055 125.683,249.557 125.687 C 248.785 125.692,248.734 125.787,249.119 126.505 C 249.447 127.119,249.443 127.386,249.103 127.596 C 248.855 127.750,248.685 128.115,248.727 128.407 C 248.943 129.955,248.669 131.423,248.163 131.423 C 247.804 131.423,247.627 131.812,247.648 132.557 C 247.669 133.317,247.378 133.937,246.763 134.440 C 246.027 135.041,245.940 135.285,246.323 135.675 C 247.014 136.377,246.911 136.772,246.036 136.772 C 245.542 136.772,245.272 137.026,245.272 137.493 C 245.272 138.015,244.903 138.284,243.935 138.466 C 243.177 138.608,242.598 138.944,242.598 139.242 C 242.598 139.608,241.827 139.850,240.062 140.039 C 238.667 140.188,237.076 140.545,236.528 140.831 C 235.979 141.117,235.143 141.353,234.670 141.354 C 234.198 141.355,233.811 141.528,233.811 141.738 C 233.811 141.948,233.121 142.120,232.278 142.120 C 231.434 142.120,230.446 142.272,230.081 142.458 C 228.643 143.189,227.412 143.588,225.215 144.034 C 223.954 144.289,222.235 144.724,221.394 144.999 L 219.866 145.498 221.689 145.529 L 223.512 145.559 223.408 152.913 L 223.305 160.267 219.924 160.378 C 215.961 160.508,216.315 160.724,209.169 153.827 C 206.858 151.597,204.838 149.769,204.680 149.766 C 204.522 149.764,204.391 151.953,204.388 154.632 C 204.381 160.493,204.360 160.537,201.683 160.385 L 199.618 160.267 199.514 153.067 C 199.422 146.727,199.339 145.893,198.814 146.094 C 198.486 146.220,197.992 146.323,197.716 146.323 C 196.959 146.323,196.371 150.473,196.371 155.810 L 196.371 160.458 193.017 160.458 C 189.733 160.458,188.643 160.133,187.382 158.779 C 185.339 156.582,178.000 149.761,177.680 149.761 C 177.405 149.761,177.268 151.542,177.268 155.110 L 177.268 160.458 174.976 160.458 L 172.684 160.458 172.680 156.543 C 172.677 154.389,172.576 152.025,172.454 151.289 L 172.233 149.951 169.192 149.856 C 167.347 149.799,165.694 149.525,164.988 149.160 C 164.349 148.829,163.727 148.657,163.607 148.778 C 163.486 148.898,163.588 148.997,163.833 148.997 C 164.078 148.997,164.279 149.172,164.279 149.385 C 164.279 149.598,165.544 151.712,167.089 154.083 C 171.495 160.839,171.448 160.458,167.876 160.458 C 165.558 160.458,165.463 160.419,164.661 159.121 L 163.835 157.784 157.528 157.784 C 150.900 157.784,149.824 158.089,149.774 159.981 C 149.758 160.564,144.583 160.661,144.227 160.085 C 144.006 159.727,145.440 157.349,146.036 157.084 C 146.194 157.014,146.323 156.790,146.323 156.588 C 146.323 156.385,147.011 155.184,147.851 153.918 C 148.691 152.653,149.379 151.587,149.379 151.549 C 149.379 151.511,148.133 151.478,146.609 151.476 C 145.086 151.473,143.544 151.328,143.183 151.153 C 142.583 150.862,142.517 151.244,142.419 155.551 L 142.311 160.267 139.733 160.380 L 137.154 160.493 137.154 157.802 L 137.154 155.110 129.895 155.110 L 122.636 155.110 122.636 157.784 L 122.636 160.458 120.153 160.458 L 117.670 160.458 117.670 158.166 C 117.670 156.893,117.500 155.874,117.287 155.874 C 117.077 155.874,116.905 156.046,116.905 156.256 C 116.905 156.466,116.562 156.638,116.141 156.638 C 115.248 156.638,115.118 157.326,115.950 157.646 C 116.778 157.964,116.655 158.548,115.759 158.548 C 115.239 158.548,114.995 158.803,114.995 159.348 C 114.995 159.827,115.302 160.228,115.759 160.348 C 118.063 160.950,116.439 161.356,112.225 161.231 C 110.572 161.181,109.647 161.303,109.647 161.570 C 109.647 161.799,109.904 161.987,110.220 161.987 C 110.535 161.987,110.793 162.159,110.793 162.369 C 110.793 163.073,110.013 162.761,108.883 161.605 C 107.719 160.414,98.949 159.739,98.949 160.840 C 98.949 161.051,98.477 161.241,97.899 161.263 L 96.848 161.304 97.899 161.719 C 98.477 161.947,98.949 162.339,98.949 162.589 C 98.949 162.839,99.336 163.156,99.809 163.294 C 100.603 163.525,100.560 163.593,99.236 164.192 C 98.448 164.549,97.803 164.979,97.803 165.149 C 97.803 165.318,97.448 165.837,97.014 166.301 L 96.226 167.144 99.784 167.388 C 101.742 167.522,116.667 167.652,132.951 167.678 C 160.508 167.720,168.665 167.970,169.794 168.807 C 170.018 168.972,170.957 169.347,171.881 169.638 C 174.203 170.372,177.486 173.465,178.742 176.102 C 180.212 179.190,180.322 196.258,178.889 198.939 C 175.029 206.164,172.107 206.686,135.484 206.686 C 103.232 206.686,106.496 206.111,106.672 211.762 L 106.781 215.282 142.311 215.473 L 177.841 215.664 177.945 223.018 L 178.049 230.372 134.275 230.372 L 90.502 230.372 90.619 216.064 C 90.707 205.257,90.852 201.640,91.213 201.279 C 91.476 201.017,91.691 200.508,91.691 200.149 C 91.691 197.969,97.224 193.505,101.095 192.561 C 105.174 191.567,108.155 191.467,134.791 191.436 C 153.044 191.415,162.670 191.270,163.158 191.009 C 163.805 190.662,163.897 190.183,163.897 187.169 L 163.897 183.724 162.572 183.171 C 161.449 182.701,156.071 182.617,127.233 182.617 L 93.219 182.617 93.219 177.077 L 93.219 171.538 92.426 172.330 C 91.089 173.668,89.569 176.897,88.439 180.802 C 87.770 183.115,87.168 184.527,86.852 184.527 C 86.571 184.527,86.342 184.851,86.342 185.247 C 86.342 186.005,84.358 186.697,84.113 186.024 C 84.043 185.831,83.740 185.673,83.440 185.673 C 83.139 185.673,82.546 185.458,82.123 185.196 C 81.573 184.855,81.273 184.838,81.077 185.137 C 80.360 186.228,78.002 186.042,76.659 184.788 C 74.197 182.489,74.056 182.420,74.328 183.639 C 75.219 187.632,79.642 194.475,84.912 200.016 L 88.561 203.852 88.193 205.556 C 87.991 206.492,87.674 208.197,87.488 209.344 C 87.178 211.261,86.495 213.094,85.917 213.563 C 85.574 213.840,84.814 218.517,84.814 220.343 C 84.814 221.202,84.615 221.970,84.371 222.051 C 84.128 222.132,83.945 222.756,83.964 223.438 C 83.994 224.496,83.892 224.643,83.261 224.443 C 82.744 224.279,82.521 224.389,82.521 224.807 C 82.521 225.136,82.264 225.406,81.948 225.406 C 81.633 225.406,81.375 225.604,81.375 225.846 C 81.375 226.089,81.051 225.913,80.655 225.457 C 80.057 224.767,79.897 224.725,79.712 225.207 C 79.331 226.200,78.167 225.838,77.265 224.446 C 76.434 223.163,75.645 222.700,75.645 223.496 C 75.645 223.706,75.473 223.878,75.263 223.878 C 75.053 223.878,74.881 223.621,74.881 223.308 C 74.881 222.995,74.537 222.523,74.117 222.261 C 73.696 221.998,73.339 221.438,73.322 221.016 C 73.306 220.594,73.205 220.463,73.099 220.726 C 72.750 221.592,71.824 221.245,71.824 220.248 C 71.824 219.630,71.610 219.293,71.217 219.293 C 70.542 219.293,69.182 217.840,69.163 217.096 C 69.148 216.534,68.386 216.440,68.386 217.001 C 68.386 217.985,67.736 217.198,67.123 215.473 C 66.493 213.699,65.731 212.934,65.697 214.040 C 65.688 214.303,65.439 213.959,65.142 213.276 C 64.845 212.593,64.422 212.034,64.202 212.034 C 63.982 212.034,63.801 211.691,63.801 211.270 C 63.801 210.850,63.629 210.506,63.419 210.506 C 63.209 210.506,63.037 210.267,63.037 209.974 C 63.037 209.681,62.779 209.343,62.464 209.222 C 62.149 209.101,61.891 208.585,61.891 208.076 C 61.891 207.566,61.633 207.051,61.318 206.930 C 61.003 206.809,60.745 206.361,60.745 205.934 C 60.745 205.507,60.495 205.158,60.189 205.158 C 59.850 205.158,59.529 204.603,59.367 203.735 C 59.220 202.952,58.880 202.092,58.613 201.825 C 58.345 201.557,58.008 200.392,57.863 199.236 C 57.687 197.827,57.426 197.135,57.072 197.135 C 56.762 197.135,56.543 196.739,56.543 196.180 C 56.543 195.654,56.371 195.224,56.160 195.224 C 55.950 195.224,55.778 194.823,55.778 194.333 C 55.778 193.843,55.649 193.314,55.492 193.159 C 55.334 193.003,55.014 191.728,54.779 190.325 L 54.353 187.775 54.302 190.926 C 54.273 192.660,54.384 194.078,54.548 194.078 C 54.711 194.078,55.050 195.581,55.300 197.417 C 55.551 199.254,55.933 200.816,56.149 200.888 C 56.365 200.960,56.543 201.279,56.543 201.598 C 56.543 201.916,56.790 202.719,57.092 203.381 C 57.394 204.043,57.909 205.186,58.237 205.922 C 58.565 206.657,59.176 207.775,59.594 208.405 C 60.012 209.035,60.569 209.967,60.831 210.474 C 61.377 211.532,62.604 213.041,64.661 215.186 C 65.449 216.007,66.094 216.771,66.094 216.882 C 66.094 217.181,67.771 218.897,68.071 218.905 C 68.213 218.908,69.165 219.738,70.187 220.749 C 71.209 221.761,72.339 222.701,72.699 222.839 C 73.058 222.977,73.352 223.246,73.352 223.437 C 73.352 223.629,73.868 223.999,74.499 224.260 C 75.129 224.521,75.645 224.890,75.645 225.080 C 75.645 225.270,76.074 225.588,76.600 225.788 C 77.125 225.988,77.555 226.309,77.555 226.501 C 77.555 226.694,77.985 226.959,78.510 227.091 C 79.035 227.223,79.465 227.478,79.465 227.659 C 79.465 227.840,79.981 228.201,80.611 228.462 C 81.242 228.723,81.757 229.088,81.757 229.273 C 81.757 229.457,82.003 229.608,82.303 229.608 C 82.603 229.608,83.076 229.834,83.354 230.109 C 83.631 230.384,84.804 231.115,85.960 231.732 C 87.116 232.350,88.147 232.942,88.252 233.047 C 88.743 233.537,96.010 236.937,100.096 238.586 C 101.461 239.138,103.095 239.814,103.725 240.090 C 104.355 240.365,106.074 240.999,107.545 241.498 C 109.016 241.998,110.306 242.508,110.411 242.631 C 110.516 242.755,111.459 243.069,112.507 243.328 C 113.555 243.588,114.586 243.940,114.799 244.110 C 115.012 244.281,115.788 244.546,116.523 244.699 C 117.259 244.853,118.032 245.108,118.243 245.266 C 118.453 245.425,119.570 245.775,120.726 246.045 C 121.882 246.315,123.085 246.670,123.400 246.833 C 123.715 246.997,124.661 247.302,125.501 247.513 C 126.342 247.723,128.319 248.263,129.895 248.712 C 134.093 249.909,141.442 251.746,145.941 252.723 C 158.499 255.450,165.433 256.783,173.813 258.082 C 175.799 258.390,177.700 258.729,178.037 258.836 C 178.628 259.024,181.119 259.379,192.932 260.959 C 209.282 263.147,224.340 264.686,242.980 266.075 C 247.287 266.396,253.047 266.834,255.778 267.049 C 264.861 267.764,286.381 268.739,284.112 268.332 C 283.138 268.157,283.084 268.073,283.580 267.498 C 292.373 257.300,301.870 235.993,306.170 216.810 C 310.065 199.431,309.289 174.396,304.304 156.638 C 299.787 140.547,294.371 129.215,284.218 114.609 C 282.597 112.277,279.755 108.676,279.121 108.150 C 278.238 107.417,278.366 107.045,279.561 106.864 C 280.590 106.708,280.587 106.704,279.433 106.648 C 278.785 106.616,278.141 106.705,278.001 106.845 M202.471 145.193 C 202.087 145.435,202.590 145.549,204.063 145.553 C 207.002 145.561,207.482 145.877,212.945 151.413 C 218.711 157.255,219.119 157.389,218.776 153.333 C 218.640 151.725,218.529 149.348,218.529 148.049 L 218.529 145.689 216.358 146.082 C 214.760 146.372,214.148 146.361,214.041 146.039 C 213.961 145.798,213.666 145.689,213.387 145.797 C 213.107 145.904,212.157 145.798,211.275 145.560 C 209.163 144.991,203.183 144.742,202.471 145.193 M249.016 145.804 C 249.795 146.013,249.882 146.239,249.780 147.805 L 249.666 149.570 240.401 149.673 C 232.516 149.760,231.137 149.859,231.137 150.341 C 231.137 150.825,232.435 150.907,240.101 150.907 C 249.961 150.907,249.819 150.872,249.671 153.292 C 249.582 154.760,250.143 154.671,240.490 154.749 C 232.218 154.816,230.427 155.035,230.972 155.917 C 231.087 156.104,235.169 156.259,240.042 156.262 C 250.028 156.268,249.953 156.251,249.786 158.586 L 249.666 160.267 239.597 160.369 C 226.226 160.505,226.170 160.472,226.170 152.588 C 226.170 145.604,226.152 145.614,238.777 145.588 C 243.926 145.578,248.533 145.675,249.016 145.804 M257.582 151.194 L 257.689 156.447 266.285 156.550 C 276.442 156.671,275.913 156.554,275.762 158.640 L 275.645 160.267 266.094 160.375 C 255.454 160.495,255.434 160.493,253.964 159.118 L 252.913 158.135 252.913 152.038 L 252.913 145.941 255.195 145.941 L 257.476 145.941 257.582 151.194 M183.849 148.893 C 186.633 152.063,190.890 156.256,191.324 156.256 C 191.656 156.256,191.786 155.139,191.786 152.301 L 191.786 148.346 189.398 148.301 C 188.085 148.277,186.084 148.080,184.953 147.863 C 183.821 147.646,182.828 147.469,182.747 147.469 C 182.665 147.469,183.161 148.110,183.849 148.893 M155.137 151.500 C 154.492 152.456,153.964 153.315,153.964 153.410 C 153.964 153.504,155.602 153.582,157.605 153.582 L 161.245 153.582 160.374 152.363 C 158.736 150.069,158.377 149.761,157.344 149.761 C 156.543 149.761,156.045 150.154,155.137 151.500 M96.753 154.615 C 95.858 154.788,95.594 155.644,96.300 156.080 C 97.133 156.595,99.331 155.879,99.331 155.093 C 99.331 154.334,98.761 154.229,96.753 154.615 M132.514 159.093 C 133.973 159.847,134.686 161.444,133.797 161.968 C 133.225 162.306,133.214 162.403,133.715 162.738 C 134.183 163.051,134.130 163.122,133.429 163.127 C 132.956 163.130,132.569 163.305,132.569 163.515 C 132.569 163.725,132.096 163.890,131.519 163.881 C 130.272 163.861,125.964 162.830,126.934 162.783 C 127.747 162.744,127.838 161.987,127.030 161.987 C 126.711 161.987,126.457 161.647,126.457 161.223 C 126.457 160.802,126.628 160.458,126.839 160.458 C 127.049 160.458,127.221 160.217,127.221 159.921 C 127.221 159.572,127.488 159.454,127.985 159.584 C 128.405 159.694,128.749 159.604,128.749 159.385 C 128.749 158.538,131.089 158.356,132.514 159.093 M258.198 167.967 L 262.839 168.216 262.938 186.018 L 263.037 203.820 269.827 203.675 L 276.617 203.529 276.513 210.743 L 276.409 217.956 269.628 218.060 L 262.846 218.165 262.846 224.269 L 262.846 230.372 255.205 230.372 L 247.564 230.372 247.564 224.260 L 247.564 218.147 240.592 218.147 C 235.784 218.147,232.790 218.327,230.945 218.727 C 226.109 219.777,224.867 219.985,221.777 220.259 C 220.096 220.409,218.512 220.697,218.258 220.901 C 217.754 221.305,209.461 220.540,208.784 220.027 C 208.572 219.867,206.080 219.617,203.245 219.472 C 192.667 218.930,195.874 218.603,212.989 218.476 L 230.564 218.347 207.068 218.151 L 183.572 217.956 183.462 214.169 C 183.340 209.979,183.017 210.909,187.588 202.292 C 188.369 200.821,190.386 196.953,192.071 193.696 C 196.637 184.872,199.942 178.519,201.386 175.790 C 203.585 171.636,207.513 168.723,211.747 168.105 C 214.250 167.740,251.895 167.628,258.198 167.967 M216.810 183.342 C 215.969 183.732,215.093 184.373,214.862 184.766 C 214.381 185.589,212.145 189.748,209.652 194.460 C 208.707 196.246,207.227 199.040,206.363 200.669 C 205.499 202.297,204.831 203.630,204.879 203.630 C 204.927 203.630,214.551 203.694,226.266 203.773 L 247.564 203.916 247.564 193.267 L 247.564 182.617 232.951 182.625 C 219.537 182.633,218.213 182.692,216.810 183.342 M263.926 197.517 C 264.070 197.517,264.431 198.066,264.728 198.737 C 265.365 200.175,266.885 201.618,268.117 201.954 C 269.913 202.443,268.032 203.629,265.461 203.629 L 263.228 203.629 263.280 199.713 C 263.309 197.560,263.407 196.184,263.498 196.657 C 263.589 197.130,263.781 197.517,263.926 197.517 M48.546 208.478 C 48.532 208.938,48.691 209.421,48.902 209.551 C 49.353 209.830,49.353 209.457,48.902 208.405 C 48.585 207.668,48.572 207.671,48.546 208.478 M49.902 212.798 C 50.026 213.534,50.282 214.299,50.470 214.499 C 51.000 215.062,50.852 213.908,50.226 212.607 L 49.675 211.461 49.902 212.798 M51.001 216.810 C 51.141 217.861,51.479 219.494,51.751 220.439 C 52.370 222.587,53.023 225.084,53.550 227.316 C 53.774 228.262,54.089 229.207,54.250 229.417 C 54.412 229.628,54.668 230.401,54.819 231.137 C 54.971 231.872,55.309 232.989,55.571 233.620 C 55.832 234.250,56.439 235.798,56.920 237.058 C 64.754 257.617,77.108 274.918,95.031 290.427 C 130.291 320.940,183.948 329.087,228.462 310.689 C 237.655 306.889,238.556 306.279,235.624 305.841 C 232.099 305.315,212.446 301.518,207.832 300.472 C 206.466 300.163,203.801 299.562,201.910 299.137 C 191.374 296.770,176.382 292.930,168.099 290.476 C 166.313 289.947,164.078 289.295,163.133 289.028 C 161.143 288.466,159.524 287.950,150.907 285.134 C 147.440 284.001,144.260 282.930,143.840 282.753 C 141.755 281.878,138.816 280.801,138.484 280.789 C 138.277 280.782,137.421 280.444,136.581 280.038 C 135.740 279.632,134.881 279.294,134.670 279.287 C 134.324 279.275,127.731 276.688,125.883 275.839 C 125.463 275.646,124.007 275.032,122.647 274.475 C 113.917 270.900,93.785 260.514,93.282 259.326 C 93.212 259.161,92.981 259.026,92.767 259.026 C 92.311 259.026,84.107 253.569,80.802 251.068 C 74.472 246.277,67.078 239.364,63.224 234.632 C 58.260 228.540,55.936 225.056,52.991 219.293 C 50.805 215.015,50.753 214.950,51.001 216.810 M194.840 308.405 C 194.841 308.563,195.358 308.691,195.989 308.691 C 196.619 308.691,197.135 308.520,197.135 308.309 C 197.135 308.099,197.393 307.927,197.708 307.927 C 198.023 307.927,198.281 308.087,198.281 308.282 C 198.281 308.691,194.130 309.634,193.797 309.301 C 193.675 309.180,193.344 309.272,193.061 309.507 C 192.716 309.794,188.882 309.971,181.374 310.048 C 175.229 310.111,170.716 310.074,171.345 309.966 C 171.975 309.857,172.611 309.573,172.759 309.334 C 172.940 309.042,175.764 308.835,181.420 308.700 C 186.037 308.590,189.910 308.404,190.028 308.285 C 190.350 307.962,194.838 308.074,194.840 308.405 M161.645 321.849 C 162.010 322.214,163.897 322.372,163.897 322.038 C 163.897 321.842,163.352 321.681,162.687 321.681 C 162.022 321.681,161.553 321.756,161.645 321.849 M193.696 322.038 C 193.696 322.234,194.165 322.309,194.738 322.206 C 196.233 321.934,196.314 321.681,194.906 321.681 C 194.241 321.681,193.696 321.842,193.696 322.038 M168.004 322.715 C 168.477 322.806,169.250 322.806,169.723 322.715 C 170.196 322.624,169.809 322.549,168.863 322.549 C 167.918 322.549,167.531 322.624,168.004 322.715 M187.684 322.719 C 188.265 322.807,189.125 322.805,189.595 322.714 C 190.064 322.623,189.589 322.551,188.539 322.554 C 187.488 322.557,187.104 322.631,187.684 322.719 " stroke="none" fill="#a51e06" fill-rule="evenodd"></path><path id="path3" d="M169.245 61.118 C 164.092 61.536,155.822 62.642,154.919 63.033 C 154.499 63.215,153.467 63.470,152.627 63.600 C 150.380 63.947,144.723 65.315,143.840 65.725 C 143.419 65.920,142.388 66.245,141.547 66.447 C 139.632 66.907,136.572 67.921,134.995 68.618 C 134.333 68.911,133.671 69.150,133.524 69.150 C 133.378 69.150,132.716 69.397,132.054 69.699 C 131.392 70.001,129.733 70.700,128.367 71.251 C 125.276 72.499,116.345 77.021,113.787 78.633 C 113.228 78.986,111.939 79.773,110.922 80.382 C 85.958 95.346,66.621 121.879,57.852 153.200 C 57.469 154.565,56.495 156.886,55.686 158.357 C 53.367 162.575,50.917 167.802,50.672 169.054 C 50.454 170.163,50.467 170.157,51.062 168.863 C 53.745 163.028,54.587 161.358,56.454 158.166 C 75.074 126.344,129.736 95.562,199.618 77.544 C 200.248 77.382,202.483 76.786,204.585 76.220 C 206.686 75.654,210.468 74.688,212.989 74.072 C 215.511 73.456,218.176 72.789,218.911 72.589 C 221.136 71.986,226.645 70.730,228.271 70.454 C 230.024 70.158,231.137 69.657,231.137 69.166 C 231.137 68.979,230.590 69.099,229.922 69.432 C 228.158 70.312,223.944 70.315,223.451 69.436 C 223.245 69.069,222.740 68.768,222.331 68.768 C 221.921 68.768,221.585 68.623,221.585 68.447 C 221.585 68.270,220.597 67.905,219.389 67.637 C 218.181 67.368,217.106 67.039,217.001 66.907 C 216.792 66.643,212.848 65.512,210.124 64.935 C 209.179 64.734,208.061 64.405,207.641 64.203 C 207.221 64.000,205.759 63.645,204.394 63.414 C 203.028 63.182,200.535 62.754,198.854 62.463 C 197.173 62.171,195.015 61.923,194.059 61.912 C 193.103 61.900,192.151 61.722,191.944 61.515 C 191.460 61.030,174.070 60.726,169.245 61.118 M247.947 78.756 C 248.843 79.584,250.196 80.179,249.995 79.657 C 249.874 79.342,249.636 79.083,249.465 79.083 C 249.295 79.083,248.840 78.970,248.455 78.831 C 248.070 78.693,247.841 78.659,247.947 78.756 M252.190 81.484 C 253.113 82.174,254.348 83.042,254.934 83.413 C 259.832 86.511,272.476 97.932,277.181 103.508 C 279.216 105.920,280.841 107.061,281.418 106.483 C 281.797 106.104,268.789 92.837,268.038 92.837 C 267.927 92.837,267.273 92.330,266.583 91.711 C 264.515 89.855,261.931 87.704,261.280 87.297 C 260.557 86.846,257.595 84.645,256.634 83.845 C 256.264 83.537,255.879 83.286,255.778 83.286 C 255.678 83.286,254.605 82.598,253.395 81.758 C 250.750 79.922,249.816 79.710,252.190 81.484 M265.784 106.989 C 263.303 107.145,261.154 107.394,261.009 107.542 C 260.673 107.884,275.452 107.350,277.092 106.960 C 278.671 106.585,271.926 106.602,265.784 106.989 M251.194 108.134 C 249.303 108.290,244.403 108.692,240.306 109.029 C 236.208 109.366,231.394 109.811,229.608 110.018 C 227.822 110.225,224.556 110.570,222.350 110.784 C 213.154 111.677,191.685 114.425,186.437 115.381 C 185.282 115.591,182.101 116.116,179.370 116.546 C 89.001 130.799,42.702 162.775,55.827 201.871 C 61.079 217.517,84.088 235.033,109.551 242.770 C 111.815 243.458,110.045 242.293,107.632 241.507 C 106.114 241.013,104.355 240.379,103.725 240.099 C 103.095 239.818,101.461 239.138,100.096 238.586 C 96.010 236.937,88.743 233.537,88.252 233.047 C 88.147 232.942,87.116 232.350,85.960 231.732 C 84.804 231.115,83.631 230.384,83.354 230.109 C 83.076 229.834,82.603 229.608,82.303 229.608 C 82.003 229.608,81.757 229.457,81.757 229.273 C 81.757 229.088,81.242 228.723,80.611 228.462 C 79.981 228.201,79.465 227.840,79.465 227.659 C 79.465 227.478,79.035 227.223,78.510 227.091 C 77.985 226.959,77.555 226.694,77.555 226.501 C 77.555 226.309,77.125 225.988,76.600 225.788 C 76.074 225.588,75.645 225.270,75.645 225.080 C 75.645 224.890,75.129 224.521,74.499 224.260 C 73.868 223.999,73.352 223.629,73.352 223.437 C 73.352 223.246,73.058 222.977,72.699 222.839 C 72.339 222.701,71.209 221.761,70.187 220.749 C 69.165 219.738,68.213 218.908,68.071 218.905 C 67.771 218.897,66.094 217.181,66.094 216.882 C 66.094 216.771,65.449 216.007,64.661 215.186 C 62.604 213.041,61.377 211.532,60.831 210.474 C 60.569 209.967,60.012 209.035,59.594 208.405 C 59.176 207.775,58.565 206.657,58.237 205.922 C 57.909 205.186,57.394 204.043,57.092 203.381 C 56.790 202.719,56.543 201.916,56.543 201.598 C 56.543 201.279,56.365 200.960,56.149 200.888 C 55.933 200.816,55.551 199.254,55.300 197.417 C 55.050 195.581,54.711 194.078,54.548 194.078 C 54.384 194.078,54.273 192.660,54.302 190.926 L 54.353 187.775 54.779 190.325 C 55.014 191.728,55.334 193.003,55.492 193.159 C 55.649 193.314,55.778 193.843,55.778 194.333 C 55.778 194.823,55.950 195.224,56.160 195.224 C 56.371 195.224,56.543 195.654,56.543 196.180 C 56.543 196.739,56.762 197.135,57.072 197.135 C 57.426 197.135,57.687 197.827,57.863 199.236 C 58.008 200.392,58.345 201.557,58.613 201.825 C 58.880 202.092,59.220 202.952,59.367 203.735 C 59.529 204.603,59.850 205.158,60.189 205.158 C 60.495 205.158,60.745 205.507,60.745 205.934 C 60.745 206.361,61.003 206.809,61.318 206.930 C 61.633 207.051,61.891 207.566,61.891 208.076 C 61.891 208.585,62.149 209.101,62.464 209.222 C 62.779 209.343,63.037 209.681,63.037 209.974 C 63.037 210.267,63.209 210.506,63.419 210.506 C 63.629 210.506,63.801 210.850,63.801 211.270 C 63.801 211.691,63.982 212.034,64.202 212.034 C 64.422 212.034,64.845 212.593,65.142 213.276 C 65.439 213.959,65.688 214.303,65.697 214.040 C 65.731 212.934,66.493 213.699,67.123 215.473 C 67.736 217.198,68.386 217.985,68.386 217.001 C 68.386 216.440,69.148 216.534,69.163 217.096 C 69.182 217.840,70.542 219.293,71.217 219.293 C 71.610 219.293,71.824 219.630,71.824 220.248 C 71.824 221.245,72.750 221.592,73.099 220.726 C 73.205 220.463,73.306 220.594,73.322 221.016 C 73.339 221.438,73.696 221.998,74.117 222.261 C 74.537 222.523,74.881 222.995,74.881 223.308 C 74.881 223.621,75.053 223.878,75.263 223.878 C 75.473 223.878,75.645 223.706,75.645 223.496 C 75.645 222.700,76.434 223.163,77.265 224.446 C 78.167 225.838,79.331 226.200,79.712 225.207 C 79.897 224.725,80.057 224.767,80.655 225.457 C 81.051 225.913,81.375 226.089,81.375 225.846 C 81.375 225.604,81.633 225.406,81.948 225.406 C 82.264 225.406,82.521 225.136,82.521 224.807 C 82.521 224.389,82.744 224.279,83.261 224.443 C 83.892 224.643,83.994 224.496,83.964 223.438 C 83.945 222.756,84.128 222.132,84.371 222.051 C 84.615 221.970,84.814 221.202,84.814 220.343 C 84.814 218.517,85.574 213.840,85.917 213.563 C 86.495 213.094,87.178 211.261,87.488 209.344 C 87.674 208.197,87.991 206.492,88.193 205.556 L 88.561 203.852 84.912 200.016 C 79.642 194.475,75.219 187.632,74.328 183.639 C 74.056 182.420,74.197 182.489,76.659 184.788 C 78.002 186.042,80.360 186.228,81.077 185.137 C 81.273 184.838,81.573 184.855,82.123 185.196 C 82.546 185.458,83.139 185.673,83.440 185.673 C 83.740 185.673,84.043 185.831,84.113 186.024 C 84.358 186.697,86.342 186.005,86.342 185.247 C 86.342 184.851,86.571 184.527,86.852 184.527 C 87.168 184.527,87.770 183.115,88.439 180.802 C 89.569 176.897,91.089 173.668,92.426 172.330 L 93.219 171.538 93.219 177.077 C 93.219 180.124,93.348 182.617,93.505 182.617 C 93.663 182.617,93.792 179.394,93.792 175.454 L 93.792 168.290 128.940 168.096 L 164.088 167.902 133.715 167.767 C 117.011 167.693,101.742 167.522,99.784 167.388 L 96.226 167.144 97.014 166.301 C 97.448 165.837,97.803 165.318,97.803 165.149 C 97.803 164.979,98.448 164.549,99.236 164.192 C 100.560 163.593,100.603 163.525,99.809 163.294 C 99.336 163.156,98.949 162.839,98.949 162.589 C 98.949 162.339,98.477 161.947,97.899 161.719 L 96.848 161.304 97.899 161.263 C 98.477 161.241,98.949 161.051,98.949 160.840 C 98.949 159.739,107.719 160.414,108.883 161.605 C 110.013 162.761,110.793 163.073,110.793 162.369 C 110.793 162.159,110.535 161.987,110.220 161.987 C 109.904 161.987,109.647 161.799,109.647 161.570 C 109.647 161.303,110.572 161.181,112.225 161.231 C 116.439 161.356,118.063 160.950,115.759 160.348 C 114.718 160.076,114.718 158.548,115.759 158.548 C 116.655 158.548,116.778 157.964,115.950 157.646 C 115.118 157.326,115.248 156.638,116.141 156.638 C 116.562 156.638,116.905 156.466,116.905 156.256 C 116.905 156.046,117.077 155.874,117.287 155.874 C 117.500 155.874,117.670 156.893,117.670 158.166 L 117.670 160.458 120.153 160.458 L 122.636 160.458 122.636 157.784 L 122.636 155.110 129.895 155.110 L 137.154 155.110 137.154 157.802 L 137.154 160.493 139.733 160.380 L 142.311 160.267 142.419 155.551 C 142.517 151.244,142.583 150.862,143.183 151.153 C 143.544 151.328,145.086 151.473,146.609 151.476 C 148.133 151.478,149.379 151.511,149.379 151.549 C 149.379 151.587,148.691 152.653,147.851 153.918 C 147.011 155.184,146.323 156.385,146.323 156.588 C 146.323 156.790,146.194 157.014,146.036 157.084 C 145.440 157.349,144.006 159.727,144.227 160.085 C 144.583 160.661,149.758 160.564,149.774 159.981 C 149.824 158.089,150.900 157.784,157.528 157.784 L 163.835 157.784 164.661 159.121 C 165.463 160.419,165.558 160.458,167.876 160.458 C 171.448 160.458,171.495 160.839,167.089 154.083 C 165.544 151.712,164.279 149.598,164.279 149.385 C 164.279 149.172,164.078 148.997,163.833 148.997 C 163.588 148.997,163.486 148.898,163.607 148.778 C 163.727 148.657,164.349 148.829,164.988 149.160 C 165.694 149.525,167.347 149.799,169.192 149.856 L 172.233 149.951 172.454 151.289 C 172.576 152.025,172.677 154.389,172.680 156.543 L 172.684 160.458 174.976 160.458 L 177.268 160.458 177.268 155.110 C 177.268 151.542,177.405 149.761,177.680 149.761 C 178.000 149.761,185.339 156.582,187.382 158.779 C 188.643 160.133,189.733 160.458,193.017 160.458 L 196.371 160.458 196.371 155.810 C 196.371 150.473,196.959 146.323,197.716 146.323 C 197.992 146.323,198.486 146.220,198.814 146.094 C 199.339 145.893,199.422 146.727,199.514 153.067 L 199.618 160.267 201.683 160.385 C 204.360 160.537,204.381 160.493,204.388 154.632 C 204.391 151.953,204.522 149.764,204.680 149.766 C 204.838 149.769,206.858 151.597,209.169 153.827 C 216.315 160.724,215.961 160.508,219.924 160.378 L 223.305 160.267 223.408 152.913 L 223.512 145.559 221.689 145.529 L 219.866 145.498 221.394 144.999 C 222.235 144.724,223.954 144.289,225.215 144.034 C 227.412 143.588,228.643 143.189,230.081 142.458 C 230.446 142.272,231.434 142.120,232.278 142.120 C 233.121 142.120,233.811 141.948,233.811 141.738 C 233.811 141.528,234.198 141.355,234.670 141.354 C 235.143 141.353,235.979 141.117,236.528 140.831 C 237.076 140.545,238.667 140.188,240.062 140.039 C 241.827 139.850,242.598 139.608,242.598 139.242 C 242.598 138.944,243.177 138.608,243.935 138.466 C 244.903 138.284,245.272 138.015,245.272 137.493 C 245.272 137.026,245.542 136.772,246.036 136.772 C 246.911 136.772,247.014 136.377,246.323 135.675 C 245.940 135.285,246.027 135.041,246.763 134.440 C 247.378 133.937,247.669 133.317,247.648 132.557 C 247.627 131.812,247.804 131.423,248.163 131.423 C 248.669 131.423,248.943 129.955,248.727 128.407 C 248.685 128.115,248.855 127.750,249.103 127.596 C 249.443 127.386,249.447 127.119,249.119 126.505 C 248.734 125.787,248.785 125.692,249.557 125.687 C 250.055 125.683,250.250 125.560,250.011 125.400 C 249.274 124.906,248.994 123.018,249.658 123.018 C 250.381 123.018,250.421 122.406,249.716 122.135 C 249.062 121.884,248.642 119.858,249.176 119.528 C 249.409 119.384,249.439 119.068,249.249 118.763 C 249.070 118.477,248.883 117.311,248.832 116.173 C 248.781 115.034,248.563 113.994,248.348 113.861 C 248.133 113.728,247.900 113.104,247.832 112.475 C 247.763 111.846,247.577 111.123,247.420 110.868 C 246.383 109.190,248.511 108.552,255.396 108.476 C 256.867 108.460,258.415 108.299,258.835 108.118 C 259.770 107.717,256.183 107.724,251.194 108.134 M211.275 145.560 C 212.157 145.798,213.107 145.904,213.387 145.797 C 213.666 145.689,213.961 145.798,214.041 146.039 C 214.148 146.361,214.760 146.372,216.358 146.082 L 218.529 145.689 218.529 148.049 C 218.529 149.348,218.640 151.725,218.776 153.333 C 219.119 157.389,218.711 157.255,212.945 151.413 C 207.482 145.877,207.002 145.561,204.063 145.553 C 202.590 145.549,202.087 145.435,202.471 145.193 C 203.183 144.742,209.163 144.991,211.275 145.560 M228.214 146.208 C 226.509 147.057,226.170 148.117,226.170 152.588 C 226.170 160.472,226.226 160.505,239.597 160.369 L 249.666 160.267 249.786 158.586 C 249.953 156.251,250.028 156.268,240.042 156.262 C 235.169 156.259,231.087 156.104,230.972 155.917 C 230.427 155.035,232.218 154.816,240.490 154.749 C 250.143 154.671,249.582 154.760,249.671 153.292 C 249.819 150.872,249.961 150.907,240.101 150.907 C 232.435 150.907,231.137 150.825,231.137 150.341 C 231.137 149.859,232.516 149.760,240.401 149.673 L 249.666 149.570 249.780 147.805 C 249.929 145.502,250.244 145.565,238.777 145.588 C 231.064 145.604,229.206 145.713,228.214 146.208 M114.040 147.660 L 114.040 149.188 104.489 149.379 L 94.938 149.570 94.826 152.759 C 94.665 157.362,93.994 157.082,104.839 156.945 L 114.040 156.829 114.158 158.453 L 114.275 160.076 104.301 160.076 C 90.987 160.076,90.923 160.043,90.932 153.210 C 90.941 145.805,90.736 145.915,104.298 146.041 L 114.040 146.132 114.040 147.660 M121.872 148.417 C 121.872 151.494,121.416 151.349,130.659 151.207 L 137.727 151.098 137.918 148.615 L 138.109 146.132 139.828 146.132 L 141.547 146.132 141.547 153.009 L 141.547 159.885 139.828 159.885 L 138.109 159.885 137.996 157.108 L 137.884 154.330 129.974 154.434 L 122.063 154.537 121.951 157.307 L 121.839 160.076 120.177 160.076 L 118.516 160.076 118.239 153.427 C 117.923 145.847,117.899 145.941,120.175 145.941 L 121.872 145.941 121.872 148.417 M160.792 146.424 C 161.510 146.798,170.010 159.227,170.010 159.904 C 170.010 160.975,166.125 159.915,165.043 158.548 L 163.833 157.020 157.375 157.020 L 150.918 157.020 149.907 158.548 C 148.965 159.971,148.772 160.076,147.100 160.076 C 145.016 160.076,144.582 159.803,145.330 158.961 C 145.625 158.629,147.518 155.778,149.537 152.627 C 153.661 146.188,153.940 145.952,157.402 145.952 C 158.768 145.952,160.293 146.164,160.792 146.424 M180.011 146.737 C 180.574 147.035,183.179 149.384,185.801 151.958 C 189.425 155.516,190.805 156.638,191.559 156.638 L 192.550 156.638 192.550 151.289 L 192.550 145.941 194.002 145.941 C 196.162 145.941,196.190 146.043,196.067 153.371 L 195.954 160.076 193.476 160.076 C 189.857 160.076,188.761 159.434,183.379 154.152 C 176.915 147.810,176.940 147.809,176.802 154.632 L 176.695 159.885 174.976 159.885 L 173.257 159.885 173.152 153.405 C 173.094 149.840,173.140 146.680,173.254 146.383 C 173.523 145.683,178.510 145.944,180.011 146.737 M205.845 146.391 C 207.391 146.781,208.303 147.508,212.558 151.740 C 215.265 154.434,217.717 156.638,218.005 156.638 C 218.293 156.638,218.658 156.681,218.816 156.734 C 218.973 156.786,219.188 154.422,219.293 151.480 L 219.484 146.132 220.974 146.010 C 222.974 145.846,222.938 145.700,222.810 153.401 L 222.697 160.173 219.715 160.000 C 216.068 159.789,215.712 159.565,209.742 153.703 C 203.698 147.769,203.629 147.780,203.629 154.728 L 203.629 160.076 201.910 160.076 L 200.191 160.076 200.191 153.009 L 200.191 145.941 202.123 145.941 C 203.186 145.941,204.860 146.144,205.845 146.391 M249.110 146.524 C 249.538 146.789,249.608 148.994,249.188 149.003 C 249.031 149.007,245.008 149.018,240.248 149.029 C 230.964 149.050,229.682 149.284,230.605 150.789 C 230.991 151.420,231.822 151.489,240.060 151.583 L 249.093 151.685 249.093 153.016 L 249.093 154.346 239.949 154.346 C 231.070 154.346,230.799 154.368,230.558 155.128 C 230.004 156.873,230.624 157.000,240.251 157.109 L 249.284 157.211 249.284 158.548 L 249.284 159.885 240.306 159.997 C 226.662 160.166,226.934 160.310,226.934 152.895 C 226.934 147.411,227.128 146.947,229.688 146.295 C 231.051 145.948,248.511 146.154,249.110 146.524 M252.913 152.038 L 252.913 158.135 253.964 159.118 C 255.434 160.493,255.454 160.495,266.094 160.375 L 275.645 160.267 275.762 158.640 C 275.913 156.554,276.442 156.671,266.285 156.550 L 257.689 156.447 257.582 151.194 L 257.476 145.941 255.672 145.995 L 253.868 146.049 255.346 146.282 L 256.825 146.514 256.761 151.323 C 256.679 157.480,255.842 156.983,266.506 157.108 L 275.263 157.211 275.379 158.401 C 275.533 159.990,275.013 160.076,265.330 160.076 C 256.555 160.076,255.601 159.957,254.237 158.694 L 253.258 157.786 253.372 151.863 C 253.435 148.605,253.357 145.940,253.200 145.940 C 253.042 145.941,252.913 148.685,252.913 152.038 M184.953 147.863 C 186.084 148.080,188.085 148.277,189.398 148.301 L 191.786 148.346 191.786 152.301 C 191.786 157.147,191.739 157.160,187.981 153.287 C 184.813 150.021,182.517 147.469,182.747 147.469 C 182.828 147.469,183.821 147.646,184.953 147.863 M154.374 151.630 C 153.518 152.890,152.818 154.017,152.818 154.134 C 152.818 154.250,154.881 154.346,157.402 154.346 C 162.603 154.346,162.454 154.474,160.510 151.671 C 158.268 148.441,156.548 148.429,154.374 151.630 M158.941 150.452 C 159.250 150.832,159.895 151.692,160.374 152.363 L 161.245 153.582 157.605 153.582 C 155.602 153.582,153.964 153.504,153.964 153.410 C 153.964 151.236,157.748 148.987,158.941 150.452 M99.331 155.093 C 99.331 155.879,97.133 156.595,96.300 156.080 C 95.594 155.644,95.858 154.788,96.753 154.615 C 98.761 154.229,99.331 154.334,99.331 155.093 M129.417 158.812 C 129.050 158.908,128.749 159.166,128.749 159.385 C 128.749 159.604,128.405 159.694,127.985 159.584 C 127.488 159.454,127.221 159.572,127.221 159.921 C 127.221 160.217,127.049 160.458,126.839 160.458 C 126.628 160.458,126.457 160.802,126.457 161.223 C 126.457 161.647,126.711 161.987,127.030 161.987 C 127.838 161.987,127.747 162.744,126.934 162.783 C 125.964 162.830,130.272 163.861,131.519 163.881 C 132.096 163.890,132.569 163.725,132.569 163.515 C 132.569 163.305,132.956 163.130,133.429 163.127 C 134.130 163.122,134.183 163.051,133.715 162.738 C 133.214 162.403,133.225 162.306,133.797 161.968 C 135.811 160.780,132.104 158.109,129.417 158.812 M224.137 168.004 C 230.058 168.063,239.858 168.063,245.914 168.004 C 251.970 167.945,247.125 167.896,235.148 167.896 C 223.171 167.896,218.216 167.944,224.137 168.004 M166.762 168.647 C 170.127 169.324,170.250 169.333,169.772 168.855 C 169.558 168.641,168.191 168.385,166.735 168.287 L 164.088 168.108 166.762 168.647 M210.124 168.351 C 209.809 168.456,209.312 168.618,209.019 168.712 C 207.672 169.141,209.018 169.108,211.079 168.661 C 212.867 168.273,213.077 168.163,212.034 168.162 C 211.299 168.160,210.439 168.246,210.124 168.351 M262.648 186.055 L 262.655 204.202 269.436 204.307 L 276.218 204.411 276.218 210.897 L 276.218 217.383 269.945 217.383 C 261.659 217.383,262.464 216.681,262.464 223.903 L 262.464 229.960 259.312 230.088 L 256.160 230.217 259.503 230.295 L 262.846 230.372 262.846 224.269 L 262.846 218.165 269.628 218.060 L 276.409 217.956 276.513 210.743 L 276.617 203.529 269.827 203.675 L 263.037 203.820 262.839 185.864 L 262.640 167.908 262.648 186.055 M171.869 170.040 C 174.251 171.097,176.409 172.917,177.681 174.943 C 178.833 176.776,179.185 176.836,178.257 175.041 C 177.479 173.536,174.148 170.535,172.486 169.840 C 170.432 168.982,169.885 169.159,171.869 170.040 M205.669 170.718 C 202.670 173.108,202.913 172.728,196.838 184.527 C 195.053 187.994,193.471 191.003,193.322 191.213 C 193.173 191.423,192.944 191.896,192.812 192.264 C 192.185 194.023,193.148 192.399,196.208 186.533 C 203.707 172.161,203.534 172.415,207.695 169.745 C 208.086 169.495,208.206 169.280,207.962 169.268 C 207.718 169.256,206.686 169.908,205.669 170.718 M49.151 173.515 C 48.097 177.179,47.654 179.204,47.860 179.411 C 47.972 179.522,48.256 178.699,48.491 177.581 C 48.727 176.464,49.191 174.721,49.523 173.710 C 49.854 172.698,50.038 171.783,49.931 171.676 C 49.824 171.569,49.473 172.396,49.151 173.515 M178.971 177.650 C 179.097 178.176,179.362 179.379,179.561 180.325 C 179.906 181.963,179.914 181.936,179.728 179.757 C 179.620 178.499,179.355 177.295,179.138 177.083 C 178.867 176.817,178.814 176.995,178.971 177.650 M46.982 183.641 C 46.448 187.397,46.697 199.447,47.354 201.719 L 47.741 203.056 47.570 201.528 C 47.080 197.156,46.961 189.162,47.325 185.122 C 47.814 179.688,47.646 178.961,46.982 183.641 M161.987 182.890 C 162.302 183.007,162.904 183.260,163.324 183.454 C 164.076 183.800,164.076 183.796,163.346 183.211 C 162.938 182.884,162.337 182.631,162.009 182.647 C 161.495 182.673,161.492 182.706,161.987 182.890 M215.964 183.369 C 215.260 183.798,214.319 184.940,213.761 186.042 C 212.482 188.565,212.826 188.529,214.206 185.995 C 215.002 184.532,215.673 183.845,216.808 183.329 C 217.650 182.947,218.080 182.631,217.765 182.627 C 217.450 182.623,216.639 182.957,215.964 183.369 M247.654 193.171 L 247.564 203.916 225.956 203.771 C 211.557 203.675,204.426 203.755,204.584 204.010 C 204.965 204.627,247.536 204.529,247.774 203.911 C 247.876 203.645,247.910 198.702,247.851 192.927 L 247.743 182.426 247.654 193.171 M179.644 189.303 C 179.596 192.665,179.373 196.076,179.149 196.884 C 178.924 197.692,178.828 198.440,178.935 198.546 C 179.533 199.145,179.949 194.978,179.847 189.417 L 179.731 183.190 179.644 189.303 M164.030 187.202 C 164.030 188.988,164.096 189.718,164.177 188.825 C 164.257 187.932,164.257 186.471,164.177 185.578 C 164.096 184.685,164.030 185.415,164.030 187.202 M212.048 189.087 C 211.564 189.991,211.541 190.372,211.988 190.095 C 212.325 189.887,212.851 188.348,212.585 188.348 C 212.507 188.348,212.265 188.680,212.048 189.087 M163.356 190.926 C 163.199 191.084,149.717 191.299,133.397 191.404 C 114.651 191.525,103.489 191.736,103.083 191.977 C 102.399 192.384,158.114 192.378,161.075 191.971 C 162.352 191.795,164.676 190.696,163.865 190.652 C 163.742 190.645,163.513 190.769,163.356 190.926 M210.697 191.786 C 210.371 192.416,210.191 192.932,210.296 192.932 C 210.401 192.932,210.753 192.416,211.079 191.786 C 211.405 191.156,211.586 190.640,211.481 190.640 C 211.376 190.640,211.023 191.156,210.697 191.786 M99.959 192.821 C 97.100 193.557,91.663 198.372,91.706 200.130 C 91.715 200.519,91.954 200.321,92.323 199.618 C 93.726 196.949,96.447 194.728,99.872 193.454 C 101.909 192.697,101.963 192.306,99.959 192.821 M191.577 194.496 C 191.241 195.146,191.033 195.745,191.116 195.828 C 191.199 195.911,191.553 195.379,191.902 194.647 C 192.688 192.999,192.416 192.873,191.577 194.496 M209.360 194.078 C 209.116 194.535,209.002 194.994,209.107 195.099 C 209.212 195.204,209.498 194.917,209.742 194.460 C 209.986 194.004,210.100 193.545,209.995 193.440 C 209.890 193.335,209.604 193.622,209.360 194.078 M207.259 198.281 C 206.518 199.752,205.998 200.955,206.103 200.955 C 206.208 200.955,206.900 199.752,207.641 198.281 C 208.382 196.810,208.902 195.606,208.797 195.606 C 208.692 195.606,208.000 196.810,207.259 198.281 M189.494 198.663 C 188.857 199.924,188.423 200.955,188.528 200.955 C 188.633 200.955,189.239 199.924,189.876 198.663 C 190.512 197.402,190.947 196.371,190.842 196.371 C 190.737 196.371,190.130 197.402,189.494 198.663 M176.695 201.236 C 175.504 202.577,175.152 203.146,175.759 202.750 C 176.626 202.183,177.730 200.911,178.557 199.522 C 179.078 198.649,178.623 199.067,176.695 201.236 M91.045 201.433 C 90.875 201.695,90.723 208.357,90.707 216.237 L 90.680 230.564 90.911 216.428 C 91.039 208.653,91.285 201.991,91.458 201.624 C 91.818 200.858,91.509 200.715,91.045 201.433 M187.584 202.101 C 187.339 202.557,187.226 203.017,187.331 203.122 C 187.436 203.227,187.721 202.940,187.966 202.483 C 188.210 202.027,188.324 201.568,188.219 201.463 C 188.113 201.358,187.828 201.645,187.584 202.101 M205.171 202.076 C 204.687 202.980,204.665 203.361,205.111 203.085 C 205.449 202.877,205.974 201.337,205.708 201.337 C 205.630 201.337,205.389 201.670,205.171 202.076 M47.809 204.202 C 47.812 204.623,48.049 205.654,48.335 206.495 L 48.856 208.023 48.633 206.495 C 48.511 205.654,48.274 204.623,48.107 204.202 L 47.804 203.438 47.809 204.202 M185.482 206.304 C 184.742 207.775,184.221 208.978,184.325 208.978 C 184.507 208.978,186.320 205.680,186.897 204.298 C 187.604 202.608,186.694 203.897,185.482 206.304 M168.863 205.373 L 167.144 205.896 168.863 205.675 C 170.570 205.455,172.425 204.767,171.156 204.825 C 170.840 204.839,169.809 205.086,168.863 205.373 M136.035 206.208 C 106.579 206.314,106.590 206.313,106.590 207.891 C 106.590 208.069,106.934 207.870,107.354 207.450 C 108.104 206.700,108.647 206.685,135.721 206.657 C 150.903 206.642,164.097 206.491,165.043 206.323 C 166.486 206.066,166.547 206.025,165.425 206.062 C 164.690 206.087,151.464 206.153,136.035 206.208 M49.326 209.933 C 49.318 210.353,49.556 211.127,49.857 211.652 C 50.537 212.843,50.537 212.274,49.857 210.506 C 49.520 209.631,49.336 209.433,49.326 209.933 M183.545 209.865 C 183.439 210.142,183.401 212.077,183.462 214.163 L 183.572 217.956 215.559 218.054 L 247.546 218.151 247.661 224.357 L 247.776 230.564 247.861 224.225 L 247.947 217.887 238.491 217.636 C 233.290 217.498,218.833 217.499,206.364 217.638 L 183.692 217.891 183.823 213.625 C 183.953 209.388,183.917 208.897,183.545 209.865 M50.693 213.754 C 52.366 221.638,63.176 236.169,74.777 246.129 C 80.485 251.029,92.197 259.411,92.672 258.936 C 92.766 258.842,91.080 257.594,88.924 256.162 C 70.967 244.240,58.126 230.444,52.297 216.810 C 50.474 212.548,50.413 212.431,50.693 213.754 M106.590 215.568 C 106.590 215.726,122.575 215.855,142.112 215.855 L 177.634 215.855 177.750 223.018 L 177.866 230.181 177.854 222.923 L 177.841 215.664 142.216 215.473 C 122.622 215.368,106.590 215.411,106.590 215.568 M110.807 243.109 C 111.039 243.356,117.685 245.654,118.167 245.654 C 118.987 245.654,117.907 244.948,116.757 244.732 C 116.040 244.598,114.964 244.251,114.365 243.962 C 113.203 243.401,110.463 242.744,110.807 243.109 M118.816 245.831 C 118.816 245.928,119.546 246.196,120.439 246.426 C 121.332 246.657,122.407 246.941,122.827 247.057 C 123.328 247.196,123.460 247.140,123.209 246.895 C 122.666 246.365,118.816 245.432,118.816 245.831 M123.819 247.347 C 124.144 247.672,132.644 249.909,132.834 249.719 C 132.941 249.612,132.280 249.334,131.366 249.100 C 130.452 248.866,128.600 248.339,127.252 247.929 C 124.951 247.229,123.446 246.973,123.819 247.347 M134.670 250.416 C 135.511 250.706,136.543 250.952,136.963 250.962 C 138.334 250.994,136.743 250.345,134.862 250.106 L 133.142 249.887 134.670 250.416 M137.920 251.130 C 138.220 251.434,143.358 252.567,143.552 252.373 C 143.648 252.277,143.064 252.032,142.254 251.828 C 140.145 251.296,137.694 250.901,137.920 251.130 M144.986 252.869 C 146.116 253.355,149.315 253.787,148.615 253.359 C 148.300 253.166,147.182 252.903,146.132 252.774 C 144.929 252.627,144.505 252.662,144.986 252.869 M153.009 254.612 C 154.059 254.898,155.263 255.138,155.683 255.144 C 157.096 255.167,155.035 254.526,152.964 254.298 L 151.098 254.093 153.009 254.612 M157.093 255.406 C 157.379 255.692,163.949 256.809,164.151 256.606 C 164.244 256.514,162.806 256.161,160.956 255.821 C 157.328 255.155,156.784 255.097,157.093 255.406 M165.807 257.067 C 167.259 257.534,170.674 257.915,170.010 257.536 C 169.694 257.356,168.405 257.108,167.144 256.984 C 165.780 256.850,165.239 256.884,165.807 257.067 M173.639 258.456 C 174.900 258.751,176.447 258.982,177.077 258.970 L 178.223 258.948 176.929 258.642 C 176.217 258.474,174.669 258.242,173.490 258.128 L 171.347 257.919 173.639 258.456 M93.223 259.290 C 93.234 259.994,115.126 271.630,115.582 271.174 C 115.669 271.087,112.913 269.606,109.458 267.883 C 106.003 266.159,101.064 263.525,98.484 262.030 C 95.903 260.534,93.663 259.236,93.505 259.146 C 93.348 259.055,93.221 259.120,93.223 259.290 M183.381 259.981 C 184.957 260.270,186.590 260.506,187.011 260.506 L 187.775 260.506 187.011 260.196 C 186.590 260.025,184.957 259.789,183.381 259.671 L 180.516 259.456 183.381 259.981 M189.150 260.720 C 189.317 260.887,197.958 262.082,198.997 262.082 C 200.674 262.082,198.626 261.658,194.455 261.142 C 189.296 260.503,188.902 260.472,189.150 260.720 M201.910 262.462 C 204.101 262.915,209.550 263.299,207.832 262.879 C 207.096 262.699,205.119 262.461,203.438 262.349 C 201.310 262.207,200.846 262.242,201.910 262.462 M210.538 263.386 C 210.694 263.540,221.744 264.756,222.990 264.756 C 223.338 264.756,223.537 264.671,223.432 264.566 C 223.327 264.461,220.591 264.119,217.351 263.806 C 210.961 263.189,210.298 263.148,210.538 263.386 M226.934 265.136 C 228.090 265.317,230.926 265.553,233.238 265.661 C 236.405 265.809,236.876 265.779,235.148 265.538 C 233.887 265.362,231.051 265.126,228.844 265.013 C 225.842 264.860,225.362 264.891,226.934 265.136 M239.255 266.176 C 239.833 266.264,240.778 266.264,241.356 266.176 C 241.934 266.089,241.461 266.017,240.306 266.017 C 239.150 266.017,238.677 266.089,239.255 266.176 M244.699 266.643 C 245.960 266.816,249.484 267.046,252.531 267.155 C 256.181 267.286,257.158 267.252,255.396 267.056 C 251.522 266.624,241.820 266.250,244.699 266.643 M261.318 267.799 C 262.264 267.967,266.562 268.198,270.869 268.312 C 275.940 268.447,277.422 268.414,275.072 268.220 C 269.512 267.761,259.353 267.450,261.318 267.799 M281.757 268.904 C 281.968 269.112,282.606 269.338,283.177 269.407 C 286.834 269.847,264.985 291.352,251.799 300.291 C 250.252 301.339,249.161 302.197,249.374 302.197 C 249.711 302.197,254.050 299.393,258.321 296.415 C 260.215 295.094,262.952 292.946,263.419 292.413 C 263.629 292.173,264.081 291.826,264.423 291.643 C 266.661 290.440,283.095 274.292,283.095 273.295 C 283.095 273.165,283.481 272.665,283.954 272.184 C 284.861 271.262,286.533 269.126,286.533 268.890 C 286.533 268.813,285.372 268.700,283.954 268.638 C 282.250 268.564,281.505 268.654,281.757 268.904 M116.332 271.559 C 116.847 272.068,124.950 275.560,125.151 275.359 C 125.238 275.271,123.806 274.544,121.967 273.743 C 116.790 271.488,115.921 271.151,116.332 271.559 M125.816 275.704 C 126.261 276.150,131.522 278.156,131.722 277.957 C 131.828 277.851,131.589 277.648,131.191 277.507 C 130.793 277.366,129.485 276.846,128.283 276.352 C 126.057 275.437,125.367 275.256,125.816 275.704 M132.693 278.527 C 133.501 279.031,135.626 279.685,135.626 279.429 C 135.626 279.237,134.425 278.753,132.951 278.352 C 132.128 278.127,132.092 278.151,132.693 278.527 M136.581 279.968 C 136.791 280.187,137.479 280.475,138.109 280.608 C 138.900 280.776,139.078 280.739,138.682 280.491 C 137.753 279.907,136.136 279.505,136.581 279.968 M141.305 281.808 C 142.013 282.116,142.681 282.279,142.791 282.169 C 143.021 281.939,141.148 281.169,140.472 281.216 C 140.223 281.233,140.598 281.499,141.305 281.808 M143.859 282.677 C 144.269 283.069,147.162 283.911,147.373 283.700 C 147.498 283.575,144.158 282.330,143.695 282.330 C 143.585 282.330,143.659 282.486,143.859 282.677 M148.806 284.446 C 149.436 284.734,150.210 284.964,150.525 284.957 C 150.840 284.949,150.583 284.707,149.952 284.418 C 149.322 284.129,148.548 283.899,148.233 283.907 C 147.918 283.914,148.176 284.157,148.806 284.446 M152.245 285.576 C 153.534 286.184,154.992 286.381,153.964 285.809 C 153.649 285.633,152.875 285.388,152.245 285.263 L 151.098 285.036 152.245 285.576 M156.256 286.883 C 156.571 287.062,157.431 287.314,158.166 287.441 L 159.503 287.672 158.166 287.132 C 156.613 286.504,155.288 286.331,156.256 286.883 M160.649 288.223 C 161.280 288.505,162.397 288.841,163.133 288.970 L 164.470 289.205 163.133 288.693 C 162.397 288.411,161.280 288.074,160.649 287.945 L 159.503 287.711 160.649 288.223 M165.043 289.540 C 165.358 289.729,166.218 289.990,166.953 290.120 C 167.855 290.280,168.042 290.251,167.526 290.030 C 166.345 289.524,164.365 289.134,165.043 289.540 M170.201 291.092 C 170.621 291.262,171.566 291.507,172.302 291.638 L 173.639 291.875 172.302 291.334 C 171.566 291.037,170.621 290.791,170.201 290.789 L 169.436 290.784 170.201 291.092 M173.830 291.984 C 174.100 292.281,178.542 293.410,178.723 293.228 C 178.864 293.087,177.421 292.652,174.785 292.040 C 174.155 291.894,173.725 291.868,173.830 291.984 M179.943 293.726 C 180.258 293.919,181.203 294.181,182.044 294.310 C 183.865 294.588,182.757 294.028,180.707 293.634 C 179.835 293.466,179.569 293.498,179.943 293.726 M185.864 295.290 C 186.285 295.457,187.316 295.693,188.157 295.816 L 189.685 296.038 188.157 295.518 C 187.316 295.231,186.285 294.994,185.864 294.991 L 185.100 294.986 185.864 295.290 M191.213 296.668 C 192.053 296.945,193.085 297.167,193.505 297.161 C 193.926 297.155,193.582 296.923,192.741 296.646 C 191.901 296.369,190.869 296.148,190.449 296.153 C 190.029 296.159,190.372 296.391,191.213 296.668 M196.753 297.938 C 198.340 298.468,200.836 298.818,200.191 298.420 C 199.876 298.226,198.758 297.966,197.708 297.843 C 196.453 297.696,196.125 297.729,196.753 297.938 M201.359 298.894 C 201.641 299.193,207.138 300.344,207.336 300.145 C 207.421 300.060,206.665 299.807,205.656 299.584 C 202.446 298.872,201.140 298.663,201.359 298.894 M208.832 300.642 C 209.277 300.833,210.481 301.091,211.506 301.217 C 212.720 301.365,213.105 301.327,212.607 301.109 C 212.187 300.925,210.984 300.667,209.933 300.535 C 208.642 300.373,208.285 300.408,208.832 300.642 M213.563 301.533 C 213.858 301.845,220.097 303.049,220.311 302.835 C 220.415 302.731,219.584 302.465,218.464 302.244 C 214.987 301.559,213.364 301.323,213.563 301.533 M222.927 303.515 C 225.312 304.100,229.098 304.616,228.797 304.315 C 228.535 304.053,222.427 302.942,221.585 303.004 C 221.270 303.027,221.874 303.257,222.927 303.515 M230.125 304.857 C 231.641 305.345,235.752 305.744,234.766 305.306 C 234.346 305.120,232.884 304.863,231.519 304.736 C 229.750 304.572,229.349 304.606,230.125 304.857 M235.721 305.755 C 235.721 305.869,237.011 306.170,238.586 306.424 C 240.162 306.678,241.452 307.034,241.452 307.216 C 241.452 307.397,241.624 307.545,241.834 307.545 C 242.944 307.545,242.047 306.441,240.783 306.252 C 237.084 305.698,235.721 305.565,235.721 305.755 " stroke="none" fill="#d46114" fill-rule="evenodd"></path><path id="path4" d="M174.123 58.730 C 174.810 58.815,175.842 58.813,176.416 58.726 C 176.990 58.639,176.428 58.569,175.167 58.571 C 173.906 58.573,173.437 58.645,174.123 58.730 M181.382 58.730 C 182.069 58.815,183.100 58.813,183.674 58.726 C 184.249 58.639,183.687 58.569,182.426 58.571 C 181.165 58.573,180.696 58.645,181.382 58.730 " stroke="none" fill="#ff0000" fill-rule="evenodd"></path></g></svg>